<svg width="24" height="24" viewBox="0 0 24 24" fill="none" xmlns="http://www.w3.org/2000/svg">
<path d="M0 12C0 5.37258 5.37258 0 12 0C18.6274 0 24 5.37258 24 12C24 18.6274 18.6274 24 12 24C5.37258 24 0 18.6274 0 12Z" fill="white"/>
<path d="M0 12C0 5.37258 5.37258 0 12 0C18.6274 0 24 5.37258 24 12C24 18.6274 18.6274 24 12 24C5.37258 24 0 18.6274 0 12Z" fill="url(#paint0_linear_2824_1105)"/>
<path d="M14.8852 12.5472C15.3377 12.7029 16.4377 13.1247 16.9742 13.7042C17.7162 14.5054 17.844 16.9602 17.8577 17.2842M6.02246 17.2842C6.09821 16.9899 6.87396 14.0157 7.39271 13.4147C7.87721 12.8532 10.124 11.9397 10.124 11.9397L10.5055 11.9849M14.4882 15.9259L14.296 17.2842M10.7147 17.2842L10.5817 15.8904M8.07896 17.2842V14.8314M16.3765 17.2842V15.0539M14.0287 14.8314L14.7562 14.9832L14.7057 12.7009" stroke="#1F2A3B" stroke-width="0.5" stroke-linecap="round" stroke-linejoin="round"/>
<path d="M10.785 14.8315L10.1753 15.039L10.414 11.717M12.9208 13.6468C12.9208 13.6468 13.2493 13.8355 13.2493 14.2238C13.2493 14.612 12.8988 15.0353 12.8988 15.0353L13.3613 17.2843M11.7365 17.2843L12.1425 15.039C12.1425 15.039 11.855 14.594 11.855 14.218C11.855 13.842 12.2325 13.6013 12.2325 13.6013M15.5885 8.14404C15.6768 9.03454 15.7648 10.2445 15.6173 10.34L15.3303 10.5275" stroke="#1F2A3B" stroke-width="0.5" stroke-linecap="round" stroke-linejoin="round"/>
<path d="M14.7301 8.2417C14.9507 8.71748 15.0756 9.23199 15.0976 9.75595C15.1302 10.2921 15.1177 10.8301 15.0601 11.3642C15.0345 11.7271 14.9357 12.0811 14.7697 12.4048C14.6036 12.7285 14.3737 13.0152 14.0939 13.2477C13.6465 13.5431 13.1145 13.6836 12.5796 13.6477C11.5599 13.6369 10.5349 12.4977 10.1991 11.0344C10.1416 10.7829 9.8701 10.8342 9.6741 10.4987C9.49826 10.1491 9.42362 9.75725 9.4586 9.36745" stroke="#1F2A3B" stroke-width="0.5" stroke-linecap="round" stroke-linejoin="round"/>
<path d="M13.7998 10.109C14.0759 10.109 14.2998 9.88515 14.2998 9.60901C14.2998 9.33287 14.0759 9.10901 13.7998 9.10901C13.5237 9.10901 13.2998 9.33287 13.2998 9.60901C13.2998 9.88515 13.5237 10.109 13.7998 10.109Z" fill="#1F2A3B"/>
<path d="M11.7871 10.109C12.0633 10.109 12.2871 9.88515 12.2871 9.60901C12.2871 9.33287 12.0633 9.10901 11.7871 9.10901C11.511 9.10901 11.2871 9.33287 11.2871 9.60901C11.2871 9.88515 11.511 10.109 11.7871 10.109Z" fill="#1F2A3B"/>
<path d="M15.5086 6.88923C14.7514 6.57173 13.8901 5.93423 12.8636 5.68073C12.1514 5.50573 11.3624 5.47798 10.6189 5.99748C9.98936 6.43598 9.31161 8.01998 9.45886 9.36723C9.45886 9.36723 9.69561 8.67448 10.1814 9.29448L10.3314 9.97573C10.2911 9.71939 10.272 9.46019 10.2741 9.20073C10.3086 8.99698 10.3709 8.98323 10.5641 8.56448C10.8446 7.95673 10.8036 7.65198 10.6424 7.49748C10.6924 7.51048 10.7364 7.52248 10.7699 7.53398C11.5124 7.77748 11.6876 7.89448 11.9024 7.96748C12.6744 8.22923 14.6806 8.39423 15.5626 8.03673C16.2226 7.76973 16.5554 6.82323 16.5554 6.82323C16.3961 6.9094 16.22 6.95993 16.0392 6.97132C15.8585 6.98272 15.6774 6.95471 15.5086 6.88923Z" stroke="#1F2A3B" stroke-width="0.5" stroke-miterlimit="10" stroke-linecap="round" stroke-linejoin="round"/>
<defs>
<linearGradient id="paint0_linear_2824_1105" x1="0" y1="0" x2="25.2231" y2="1.36283" gradientUnits="userSpaceOnUse">
<stop stop-color="#F4EEE1"/>
<stop offset="1" stop-color="#CBB586"/>
</linearGradient>
</defs>
</svg>
