<svg width="24" height="24" viewBox="0 0 24 24" fill="none" xmlns="http://www.w3.org/2000/svg">
<path d="M0 12C0 5.37258 5.37258 0 12 0C18.6274 0 24 5.37258 24 12C24 18.6274 18.6274 24 12 24C5.37258 24 0 18.6274 0 12Z" fill="white"/>
<path d="M0 12C0 5.37258 5.37258 0 12 0C18.6274 0 24 5.37258 24 12C24 18.6274 18.6274 24 12 24C5.37258 24 0 18.6274 0 12Z" fill="url(#paint0_linear_2824_999)"/>
<path d="M8.68012 17.8334H6.43746C5.96679 17.8334 5.73346 17.8334 5.59146 17.7454C5.51651 17.6976 5.45402 17.6326 5.40916 17.5559C5.3643 17.4791 5.33835 17.3928 5.33346 17.304C5.32479 17.1374 5.44146 16.9374 5.67479 16.5327L11.2081 6.9167C11.4455 6.5087 11.5661 6.3047 11.7161 6.23004C11.7961 6.18908 11.8846 6.16772 11.9745 6.16772C12.0643 6.16772 12.1528 6.18908 12.2328 6.23004C12.3828 6.3047 12.4995 6.5087 12.7328 6.9167L13.8741 8.87537L13.8788 8.88337C14.0655 9.1607 14.2148 9.46204 14.3201 9.77937C14.3836 10.0337 14.3836 10.2997 14.3201 10.554C14.2148 10.874 14.0668 11.1787 13.8788 11.4587L10.9701 16.5247L10.9621 16.5414C10.8128 16.844 10.6221 17.1247 10.3955 17.3747C10.2 17.5581 9.96477 17.6936 9.70812 17.7707C9.47012 17.8327 9.20812 17.8327 8.67879 17.8327M14.3401 17.8327H17.5481C18.0281 17.8327 18.2648 17.8327 18.4068 17.7407C18.4818 17.6928 18.5444 17.6278 18.5892 17.5509C18.6341 17.474 18.66 17.3876 18.6648 17.2987C18.6735 17.1367 18.5608 16.9454 18.3361 16.5654L18.3108 16.524L16.7028 13.816L16.6861 13.7827C16.4608 13.4074 16.3441 13.216 16.1988 13.1407C16.1194 13.0998 16.0314 13.0784 15.9421 13.0784C15.8528 13.0784 15.7648 13.0998 15.6855 13.1407C15.5361 13.216 15.4188 13.416 15.1855 13.816L13.5775 16.528V16.5367C13.3401 16.9367 13.2241 17.1367 13.2321 17.2987C13.2367 17.3883 13.2625 17.4754 13.3074 17.5531C13.3522 17.6307 13.4148 17.6966 13.4901 17.7454C13.6281 17.832 13.8655 17.832 14.3401 17.832" fill="#1F2A3B"/>
<defs>
<linearGradient id="paint0_linear_2824_999" x1="0" y1="0" x2="25.2231" y2="1.36283" gradientUnits="userSpaceOnUse">
<stop stop-color="#F4EEE1"/>
<stop offset="1" stop-color="#CBB586"/>
</linearGradient>
</defs>
</svg>
