<svg width="24" height="24" viewBox="0 0 24 24" fill="none" xmlns="http://www.w3.org/2000/svg">
<path d="M0 12C0 5.37258 5.37258 0 12 0C18.6274 0 24 5.37258 24 12C24 18.6274 18.6274 24 12 24C5.37258 24 0 18.6274 0 12Z" fill="white"/>
<path d="M0 12C0 5.37258 5.37258 0 12 0C18.6274 0 24 5.37258 24 12C24 18.6274 18.6274 24 12 24C5.37258 24 0 18.6274 0 12Z" fill="url(#paint0_linear_2824_1105)"/>
<path fill-rule="evenodd" clip-rule="evenodd" d="M15.1165 11.4746C15.8697 11.0843 16.3454 10.4039 16.2364 9.26305C16.0877 7.70193 14.7598 7.18156 13.075 7.03145V5H11.7768V7.00143H10.7362V5H9.43793V7.00143C9.15054 7.00143 8.88296 7.01144 8.60547 7.01144H7V8.44246C7 8.44246 7.76309 8.42244 7.74327 8.44246C8.26852 8.44246 8.4469 8.75268 8.49646 9.02287V11.4846V14.9271C8.47663 15.0972 8.37753 15.3674 8.01085 15.3674C8.03067 15.3774 7.26758 15.3674 7.26758 15.3674L7.00991 16.9986H9.42802V19H10.7263V16.9986H11.7669V19H13.0651V16.9485C15.2553 16.8184 16.7815 16.268 16.9797 14.1866C17.1382 12.5154 16.3553 11.7648 15.1165 11.4646V11.4746ZM10.756 8.53252H11.0236C11.9353 8.51251 13.7985 8.46247 13.7985 9.85347C13.7985 11.2144 11.856 11.1844 10.9641 11.1644H10.7461V8.54253L10.756 8.53252ZM14.403 13.9264C14.403 15.4274 12.0741 15.3874 11.0038 15.3774H10.7461V12.4853H11.0632C12.1534 12.4553 14.3931 12.4053 14.3931 13.9364L14.403 13.9264Z" fill="#1F2A3B"/>
<defs>
<linearGradient id="paint0_linear_2824_1105" x1="0" y1="0" x2="25.2231" y2="1.36283" gradientUnits="userSpaceOnUse">
<stop stop-color="#F4EEE1"/>
<stop offset="1" stop-color="#CBB586"/>
</linearGradient>
</defs>
</svg>
