<svg width="24" height="24" viewBox="0 0 24 24" fill="none" xmlns="http://www.w3.org/2000/svg">
<path d="M0 12C0 5.37258 5.37258 0 12 0C18.6274 0 24 5.37258 24 12C24 18.6274 18.6274 24 12 24C5.37258 24 0 18.6274 0 12Z" fill="white"/>
<path d="M0 12C0 5.37258 5.37258 0 12 0C18.6274 0 24 5.37258 24 12C24 18.6274 18.6274 24 12 24C5.37258 24 0 18.6274 0 12Z" fill="url(#paint0_linear_2824_1005)"/>
<g clip-path="url(#clip0_2824_1005)">
<path d="M12.0002 5C13.3944 5 14.5249 5.65742 14.5249 6.46825C14.5249 7.27908 13.3944 7.9365 12.0002 7.9365C10.606 7.9365 9.47553 7.27908 9.47553 6.46825C9.47553 5.65742 10.606 5 12.0002 5ZM12.0002 16.0635C13.3944 16.0635 14.5249 16.7209 14.5249 17.5317C14.5249 18.3426 13.3944 19 12.0002 19C10.606 19 9.47553 18.3426 9.47553 17.5317C9.47553 16.7209 10.606 16.0635 12.0002 16.0635ZM5.93703 8.5C6.63353 7.2925 7.76928 6.64267 8.4722 7.04808C9.17511 7.4535 9.17919 8.76133 8.48211 9.96883C7.78503 11.1763 6.64986 11.825 5.94753 11.4207C5.2452 11.0165 5.23994 9.7075 5.93703 8.5ZM15.5194 14.0317C16.2194 12.8242 17.3505 12.1744 18.0529 12.5798C18.7552 12.9852 18.7593 14.2925 18.0622 15.5C17.3651 16.7075 16.2305 17.3579 15.5282 16.9525C14.8259 16.5471 14.8218 15.2392 15.5194 14.0317ZM5.94753 12.5792C6.65044 12.1709 7.78503 12.8237 8.48269 14.0312C9.18036 15.2387 9.17511 16.5459 8.4722 16.9519C7.76928 17.3579 6.63353 16.7075 5.93761 15.5C5.2417 14.2925 5.2452 12.9852 5.94753 12.5792ZM15.5288 7.04867C16.2288 6.64325 17.3657 7.29308 18.0628 8.50058C18.7599 9.70808 18.7558 11.0153 18.0534 11.4213C17.3511 11.8273 16.2171 11.1763 15.52 9.96883C14.8229 8.76133 14.827 7.45408 15.5288 7.04867Z" fill="#1F2A3B"/>
</g>
<defs>
<linearGradient id="paint0_linear_2824_1005" x1="0" y1="0" x2="25.2231" y2="1.36283" gradientUnits="userSpaceOnUse">
<stop stop-color="#F4EEE1"/>
<stop offset="1" stop-color="#CBB586"/>
</linearGradient>
<clipPath id="clip0_2824_1005">
<rect width="14" height="14" fill="white" transform="translate(5 5)"/>
</clipPath>
</defs>
</svg>
