<svg width="24" height="24" viewBox="0 0 24 24" fill="none" xmlns="http://www.w3.org/2000/svg">
<path d="M0 12C0 5.37258 5.37258 0 12 0C18.6274 0 24 5.37258 24 12C24 18.6274 18.6274 24 12 24C5.37258 24 0 18.6274 0 12Z" fill="white"/>
<path d="M0 12C0 5.37258 5.37258 0 12 0C18.6274 0 24 5.37258 24 12C24 18.6274 18.6274 24 12 24C5.37258 24 0 18.6274 0 12Z" fill="url(#paint0_linear_2393_1283)"/>
<path d="M0 12C0 5.37258 5.37258 0 12 0V0C18.6274 0 24 5.37258 24 12V12C24 18.6274 18.6274 24 12 24V24C5.37258 24 0 18.6274 0 12V12Z" fill="white"/>
<path d="M0 12C0 5.37258 5.37258 0 12 0V0C18.6274 0 24 5.37258 24 12V12C24 18.6274 18.6274 24 12 24V24C5.37258 24 0 18.6274 0 12V12Z" fill="url(#paint1_linear_2393_1283)"/>
<path d="M15.2134 10.1233C15.0911 10.0576 14.9546 10.0232 14.8159 10.0232C14.6773 10.0232 14.5408 10.0576 14.4185 10.1233L12.6264 11.1921L11.3745 11.8938L9.58246 12.9632C9.46012 13.029 9.32362 13.0634 9.18499 13.0634C9.04635 13.0634 8.90985 13.029 8.78751 12.9632L7.36327 12.1273C7.24604 12.0591 7.14799 11.9619 7.07839 11.8449C7.00879 11.7279 6.96994 11.5949 6.9655 11.4585V9.78994C6.96297 9.65208 6.99891 9.51628 7.06921 9.39802C7.13951 9.27977 7.24136 9.18381 7.36312 9.12111L8.78751 8.31954C8.90977 8.25351 9.0463 8.21896 9.18499 8.21896C9.32367 8.21896 9.4602 8.25351 9.58246 8.31954L11.0067 9.12126C11.1239 9.18945 11.2219 9.28665 11.2915 9.40369C11.3611 9.52072 11.3999 9.65371 11.4043 9.79009V10.8582L12.6264 10.1235V9.08826C12.6297 8.95108 12.5948 8.81571 12.5258 8.69749C12.4567 8.57928 12.3561 8.48295 12.2355 8.41942L9.61503 6.88318C9.49278 6.81714 9.35624 6.78259 9.21756 6.78259C9.07887 6.78259 8.94234 6.81714 8.82008 6.88318L6.17055 8.41942C6.03827 8.47124 5.92552 8.56372 5.84826 8.68376C5.771 8.8038 5.73314 8.94532 5.74006 9.08826V12.1943C5.73813 12.3316 5.77436 12.4667 5.84467 12.5843C5.91497 12.7019 6.01653 12.7973 6.13783 12.8596L8.78751 14.3996C8.90985 14.4653 9.04635 14.4997 9.18499 14.4997C9.32362 14.4997 9.46012 14.4653 9.58246 14.3996L11.3745 13.3638L12.6 12.6291L14.3859 11.5967C14.5082 11.5309 14.6447 11.4965 14.7834 11.4965C14.922 11.4965 15.0585 11.5309 15.1808 11.5967L16.6051 12.3984C16.7222 12.4666 16.8202 12.5638 16.8897 12.6809C16.9592 12.7979 16.9979 12.9309 17.0023 13.0672V14.7041C17.0048 14.8418 16.9689 14.9775 16.8987 15.0957C16.8285 15.2138 16.7267 15.3097 16.6051 15.3723L15.1808 16.2069C15.0586 16.2729 14.9221 16.3075 14.7834 16.3075C14.6447 16.3075 14.5082 16.2729 14.3859 16.2069L12.9617 15.4052C12.8445 15.3372 12.7464 15.2401 12.6768 15.1232C12.6072 15.0063 12.5683 14.8734 12.5639 14.7371V13.6643L11.3745 14.3654V15.4336C11.3719 15.5714 11.4078 15.7072 11.478 15.8255C11.5482 15.9437 11.65 16.0397 11.7717 16.1024L14.4214 17.6385C14.5438 17.7046 14.6804 17.7391 14.8192 17.7391C14.9579 17.7391 15.0946 17.7046 15.2169 17.6385L17.8665 16.1021C17.9829 16.0337 18.0802 15.9365 18.1492 15.8198C18.2182 15.703 18.2566 15.5705 18.2609 15.4346V12.3272C18.2634 12.1894 18.2275 12.0537 18.1571 11.9355C18.0868 11.8173 17.9849 11.7215 17.8631 11.659L15.2134 10.1233Z" fill="#1F2A3B"/>
<defs>
<linearGradient id="paint0_linear_2393_1283" x1="0" y1="0" x2="25.2231" y2="1.36283" gradientUnits="userSpaceOnUse">
<stop stop-color="#F4EEE1"/>
<stop offset="1" stop-color="#CBB586"/>
</linearGradient>
<linearGradient id="paint1_linear_2393_1283" x1="0" y1="0" x2="25.2231" y2="1.36283" gradientUnits="userSpaceOnUse">
<stop stop-color="#F4EEE1"/>
<stop offset="1" stop-color="#CBB586"/>
</linearGradient>
</defs>
</svg>
