<svg width="24" height="24" viewBox="0 0 24 24" fill="none" xmlns="http://www.w3.org/2000/svg">
<path d="M0 12C0 5.37258 5.37258 0 12 0C18.6274 0 24 5.37258 24 12C24 18.6274 18.6274 24 12 24C5.37258 24 0 18.6274 0 12Z" fill="white"/>
<path d="M0 12C0 5.37258 5.37258 0 12 0C18.6274 0 24 5.37258 24 12C24 18.6274 18.6274 24 12 24C5.37258 24 0 18.6274 0 12Z" fill="url(#paint0_linear_2393_1287)"/>
<g clip-path="url(#clip0_2393_1287)">
<path fill-rule="evenodd" clip-rule="evenodd" d="M10.0714 18.8376C10.0714 19.0751 9.87859 19.2001 9.64716 19.1376C8.09106 18.6536 6.73337 17.7015 5.77005 16.4186C4.80672 15.1357 4.2876 13.5884 4.2876 12.0001C4.2876 10.4117 4.80672 8.86438 5.77005 7.58149C6.73337 6.2986 8.09106 5.34648 9.64716 4.86256C9.87859 4.78756 10.0714 4.92506 10.0714 5.16256V5.73756C10.0714 5.90006 9.94287 6.07506 9.78859 6.12506C7.33287 7.00006 5.57145 9.30006 5.57145 11.9876C5.57145 14.6751 7.33287 16.9751 9.78859 17.8501C9.94287 17.9001 10.0714 18.0876 10.0714 18.2376V18.8251V18.8376Z" fill="#1F2A3B"/>
<path fill-rule="evenodd" clip-rule="evenodd" d="M12.6431 16.6875C12.6431 16.8625 12.5016 17 12.3216 17H11.6788C11.4988 17 11.3574 16.8625 11.3574 16.6875V15.7C9.95593 15.5125 9.27451 14.75 9.08165 13.7125C9.04308 13.5375 9.19736 13.375 9.37736 13.375H10.1102C10.2645 13.375 10.3931 13.475 10.4188 13.625C10.5602 14.25 10.9202 14.7125 12.0516 14.7125C12.8874 14.7125 13.4659 14.2625 13.4659 13.5875C13.4659 12.9125 13.1188 12.6625 11.8974 12.4625C10.0974 12.225 9.24879 11.7 9.24879 10.325C9.24879 9.26255 10.0716 8.45005 11.3445 8.26255V7.30005C11.3445 7.12505 11.4859 6.98755 11.6659 6.98755H12.3088C12.4888 6.98755 12.6302 7.12505 12.6302 7.30005V8.30005C13.6716 8.47505 14.3274 9.05005 14.5331 10C14.5716 10.175 14.4302 10.35 14.2374 10.35H13.5559C13.4145 10.35 13.2859 10.25 13.2474 10.125C13.0674 9.52505 12.6174 9.26255 11.8588 9.26255C11.0102 9.26255 10.5731 9.66255 10.5731 10.225C10.5731 10.8125 10.8174 11.1125 12.1288 11.3C13.8902 11.5375 14.8031 12.025 14.8031 13.4875C14.8031 14.6 13.9545 15.5 12.6302 15.7V16.6875H12.6431Z" fill="#1F2A3B"/>
<path fill-rule="evenodd" clip-rule="evenodd" d="M14.353 19.1375C14.1216 19.2125 13.9287 19.075 13.9287 18.8375V18.2625C13.9287 18.0875 14.0316 17.925 14.2116 17.875C16.6673 17 18.4287 14.7 18.4287 12.0125C18.4287 9.32496 16.6673 7.02496 14.2116 6.14996C14.1319 6.11746 14.0632 6.06395 14.0132 5.99547C13.9633 5.92699 13.934 5.84628 13.9287 5.76246V5.18746C13.9287 4.94996 14.1216 4.81246 14.353 4.88746C17.4644 5.84996 19.7144 8.68746 19.7144 12.025C19.7144 15.3625 17.4644 18.1875 14.353 19.1625V19.1375Z" fill="#1F2A3B"/>
</g>
<defs>
<linearGradient id="paint0_linear_2393_1287" x1="0" y1="0" x2="25.2231" y2="1.36283" gradientUnits="userSpaceOnUse">
<stop stop-color="#F4EEE1"/>
<stop offset="1" stop-color="#CBB586"/>
</linearGradient>
<clipPath id="clip0_2393_1287">
<rect width="16" height="16" fill="white" transform="translate(4 4)"/>
</clipPath>
</defs>
</svg>
