<svg width="24" height="24" viewBox="0 0 24 24" fill="none" xmlns="http://www.w3.org/2000/svg">
<path d="M0 12C0 5.37258 5.37258 0 12 0C18.6274 0 24 5.37258 24 12C24 18.6274 18.6274 24 12 24C5.37258 24 0 18.6274 0 12Z" fill="white"/>
<path d="M0 12C0 5.37258 5.37258 0 12 0C18.6274 0 24 5.37258 24 12C24 18.6274 18.6274 24 12 24C5.37258 24 0 18.6274 0 12Z" fill="url(#paint0_linear_2300_2807)"/>
<path fill-rule="evenodd" clip-rule="evenodd" d="M13.1949 12.9534V12.9522C13.1262 12.9572 12.7721 12.9784 11.9822 12.9784C11.3514 12.9784 10.9074 12.9597 10.7513 12.9522V12.954C8.32322 12.8472 6.51093 12.4245 6.51093 11.9186C6.51093 11.4134 8.32322 10.9906 10.7513 10.882V12.5331C10.9099 12.5444 11.3645 12.5712 11.9928 12.5712C12.7465 12.5712 13.1244 12.54 13.1949 12.5338V10.8832C15.618 10.9912 17.4259 11.414 17.4259 11.9186C17.4259 12.4245 15.618 12.846 13.1949 12.9534ZM13.1949 10.7115V9.2339H16.576V6.98071H7.37024V9.2339H10.7513V10.7108C8.00348 10.837 5.93701 11.3816 5.93701 12.0335C5.93701 12.6855 8.00348 13.2294 10.7513 13.3562V18.0912H13.1949V13.355C15.9384 13.2288 17.9998 12.6849 17.9998 12.0335C17.9998 11.3822 15.9384 10.8382 13.1949 10.7115Z" fill="#1F2A3B"/>
<defs>
<linearGradient id="paint0_linear_2300_2807" x1="0" y1="0" x2="25.2231" y2="1.36283" gradientUnits="userSpaceOnUse">
<stop stop-color="#F4EEE1"/>
<stop offset="1" stop-color="#CBB586"/>
</linearGradient>
</defs>
</svg>
