<svg width="24" height="24" viewBox="0 0 24 24" fill="none" xmlns="http://www.w3.org/2000/svg">
<path d="M0 12C0 5.37258 5.37258 0 12 0C18.6274 0 24 5.37258 24 12C24 18.6274 18.6274 24 12 24C5.37258 24 0 18.6274 0 12Z" fill="white"/>
<path d="M0 12C0 5.37258 5.37258 0 12 0C18.6274 0 24 5.37258 24 12C24 18.6274 18.6274 24 12 24C5.37258 24 0 18.6274 0 12Z" fill="url(#paint0_linear_2824_964)"/>
<path d="M18.5188 6.66663H16.6274L13.6341 9.58063C13.1959 10.0046 12.6098 10.2413 12.0001 10.2406C11.3902 10.2414 10.8039 10.0047 10.3654 9.58063L7.37478 6.66663H5.48145L9.42011 10.5026C10.8468 11.8913 13.1581 11.8913 14.5834 10.5026L18.5188 6.66663ZM5.48211 17.3333H7.36678L10.3721 14.41C10.8088 13.9873 11.3931 13.7517 12.0008 13.7533C12.6101 13.7533 13.1954 13.9893 13.6294 14.41L16.6348 17.3333H18.5188L14.5721 13.4926C13.1508 12.1106 10.8488 12.1106 9.42878 13.4926L5.48211 17.3333Z" fill="#1F2A3B"/>
<defs>
<linearGradient id="paint0_linear_2824_964" x1="0" y1="0" x2="25.2231" y2="1.36283" gradientUnits="userSpaceOnUse">
<stop stop-color="#F4EEE1"/>
<stop offset="1" stop-color="#CBB586"/>
</linearGradient>
</defs>
</svg>
