<svg width="21" height="16" viewBox="0 0 21 16" fill="none" xmlns="http://www.w3.org/2000/svg">
<g clip-path="url(#clip0_435_947)">
<path fill-rule="evenodd" clip-rule="evenodd" d="M0.5 0.5V15.5H20.5V0.5H0.5Z" fill="#2E42A5"/>
<mask id="mask0_435_947" style="mask-type:luminance" maskUnits="userSpaceOnUse" x="0" y="0" width="21" height="16">
<path fill-rule="evenodd" clip-rule="evenodd" d="M0.5 0.5V15.5H20.5V0.5H0.5Z" fill="white"/>
</mask>
<g mask="url(#mask0_435_947)">
<path d="M-1.72681 14.4281L2.67444 16.29L20.5994 2.52375L22.9213 -0.242505L18.2151 -0.86438L10.9038 5.0675L5.01882 9.065L-1.72681 14.4281Z" fill="white"/>
<path d="M-1.125 15.7325L1.11813 16.8125L22.0875 -0.49939H18.9394L-1.125 15.7325Z" fill="#F50100"/>
<path d="M22.7267 14.4281L18.3255 16.29L0.400489 2.52375L-1.92139 -0.242505L2.78486 -0.86438L10.0961 5.0675L15.9811 9.065L22.7267 14.4281Z" fill="white"/>
<path d="M22.5769 15.3643L20.3344 16.4443L11.4056 9.03185L8.75811 8.20435L-2.14502 -0.233154H1.00373L11.9 8.00435L14.7944 8.99685L22.5769 15.3643Z" fill="#F50100"/>
<path fill-rule="evenodd" clip-rule="evenodd" d="M12.8613 -0.75H8.13883V5.5H-0.732422V10.5H8.13883V16.75H12.8613V10.5H21.7676V5.5H12.8613V-0.75Z" fill="#F50100"/>
<mask id="mask1_435_947" style="mask-type:luminance" maskUnits="userSpaceOnUse" x="-1" y="-1" width="23" height="18">
<path fill-rule="evenodd" clip-rule="evenodd" d="M12.8613 -0.75H8.13883V5.5H-0.732422V10.5H8.13883V16.75H12.8613V10.5H21.7676V5.5H12.8613V-0.75Z" fill="white"/>
</mask>
<g mask="url(#mask1_435_947)">
<path d="M8.13883 -0.75V-2H6.88883V-0.75H8.13883ZM12.8613 -0.75H14.1113V-2H12.8613V-0.75ZM8.13883 5.5V6.75H9.38883V5.5H8.13883ZM-0.732422 5.5V4.25H-1.98242V5.5H-0.732422ZM-0.732422 10.5H-1.98242V11.75H-0.732422V10.5ZM8.13883 10.5H9.38883V9.25H8.13883V10.5ZM8.13883 16.75H6.88883V18H8.13883V16.75ZM12.8613 16.75V18H14.1113V16.75H12.8613ZM12.8613 10.5V9.25H11.6113V10.5H12.8613ZM21.7676 10.5V11.75H23.0176V10.5H21.7676ZM21.7676 5.5H23.0176V4.25H21.7676V5.5ZM12.8613 5.5H11.6113V6.75H12.8613V5.5ZM8.13883 0.5H12.8613V-2H8.13883V0.5ZM9.38883 5.5V-0.75H6.88883V5.5H9.38883ZM-0.732422 6.75H8.13883V4.25H-0.732422V6.75ZM0.517578 10.5V5.5H-1.98242V10.5H0.517578ZM8.13883 9.25H-0.732422V11.75H8.13883V9.25ZM9.38883 16.75V10.5H6.88883V16.75H9.38883ZM12.8613 15.5H8.13883V18H12.8613V15.5ZM11.6113 10.5V16.75H14.1113V10.5H11.6113ZM21.7676 9.25H12.8613V11.75H21.7676V9.25ZM20.5176 5.5V10.5H23.0176V5.5H20.5176ZM12.8613 6.75H21.7676V4.25H12.8613V6.75ZM11.6113 -0.75V5.5H14.1113V-0.75H11.6113Z" fill="white"/>
</g>
</g>
</g>
<defs>
<clipPath id="clip0_435_947">
<rect x="0.5" y="0.5" width="20" height="15" rx="2" fill="white"/>
</clipPath>
</defs>
</svg>
