<svg width="24" height="24" viewBox="0 0 24 24" fill="none" xmlns="http://www.w3.org/2000/svg">
<g filter="url(#filter0_d_3152_2601)">
<path d="M18.6667 9.10172V9.14734C18.6667 9.68484 18.6667 9.95422 18.5287 10.1742C18.3907 10.3942 18.1394 10.5248 17.638 10.7867L17.1094 11.0617C17.4734 9.90672 17.5954 8.66547 17.64 7.60422L17.6467 7.46609L17.648 7.43359C18.082 7.57484 18.326 7.68047 18.478 7.87797C18.6667 8.12359 18.6667 8.44984 18.6667 9.10172ZM5.33337 9.10172V9.14734C5.33337 9.68484 5.33337 9.95422 5.47137 10.1742C5.60937 10.3942 5.86071 10.5248 6.36204 10.7867L6.89137 11.0617C6.52671 9.90672 6.40471 8.66547 6.36004 7.60422L6.35337 7.46609L6.35271 7.43359C5.91804 7.57484 5.67404 7.68047 5.52204 7.87797C5.33337 8.12359 5.33337 8.45047 5.33337 9.10172Z" fill="#FFE100"/>
</g>
<g filter="url(#filter1_d_3152_2601)">
<path fill-rule="evenodd" clip-rule="evenodd" d="M12 5.2499C13.1893 5.2499 14.1687 5.34802 14.918 5.46677C15.6773 5.58677 16.0567 5.64677 16.374 6.01302C16.6913 6.37927 16.674 6.7749 16.6407 7.56615C16.526 10.2843 15.9007 13.6786 12.5 13.9786V16.1874H13.4533C13.6074 16.1875 13.7567 16.2376 13.8758 16.3292C13.9949 16.4208 14.0765 16.5483 14.1067 16.6899L14.2333 17.2811H16C16.1326 17.2811 16.2598 17.3305 16.3536 17.4184C16.4473 17.5063 16.5 17.6256 16.5 17.7499C16.5 17.8742 16.4473 17.9934 16.3536 18.0814C16.2598 18.1693 16.1326 18.2186 16 18.2186H8C7.86739 18.2186 7.74022 18.1693 7.64645 18.0814C7.55268 17.9934 7.5 17.8742 7.5 17.7499C7.5 17.6256 7.55268 17.5063 7.64645 17.4184C7.74022 17.3305 7.86739 17.2811 8 17.2811H9.76667L9.89334 16.6899C9.92353 16.5483 10.0051 16.4208 10.1242 16.3292C10.2433 16.2376 10.3926 16.1875 10.5467 16.1874H11.5V13.9786C8.1 13.6786 7.47467 10.2836 7.36 7.56615C7.326 6.7749 7.30934 6.37865 7.62667 6.01302C7.94334 5.64677 8.32267 5.58677 9.082 5.46677C10.0466 5.31864 11.0226 5.2461 12 5.2499ZM12.6347 7.87427L12.5693 7.76427C12.316 7.3374 12.1893 7.1249 12 7.1249C11.8107 7.1249 11.684 7.3374 11.4307 7.76427L11.3653 7.87427C11.2933 7.99552 11.2573 8.05552 11.2013 8.09552C11.1447 8.13552 11.0747 8.15052 10.9347 8.1799L10.808 8.2074C10.316 8.31177 10.07 8.36365 10.0113 8.5399C9.95267 8.71615 10.1207 8.90052 10.456 9.26802L10.5427 9.36302C10.638 9.4674 10.686 9.51927 10.7073 9.58427C10.7287 9.64927 10.7213 9.71865 10.7073 9.85802L10.694 9.9849C10.6433 10.4755 10.618 10.7211 10.7707 10.8299C10.924 10.9386 11.1547 10.8393 11.6153 10.6405L11.734 10.5893C11.8653 10.533 11.9307 10.5049 12 10.5049C12.0693 10.5049 12.1347 10.533 12.266 10.5893L12.3847 10.6405C12.8453 10.8399 13.076 10.9386 13.2293 10.8299C13.3827 10.7211 13.3567 10.4755 13.306 9.9849L13.2927 9.85802C13.2787 9.71865 13.2713 9.64927 13.2927 9.58427C13.314 9.51927 13.362 9.4674 13.4573 9.36302L13.544 9.26802C13.8793 8.90052 14.0473 8.71677 13.9887 8.5399C13.93 8.36365 13.684 8.31177 13.192 8.2074L13.0653 8.1799C12.9253 8.15052 12.8553 8.13615 12.7987 8.09552C12.7427 8.05552 12.7067 7.99552 12.6347 7.87427Z" fill="#FFE100"/>
</g>
<defs>
<filter id="filter0_d_3152_2601" x="0.333374" y="2.43359" width="23.3333" height="13.6282" filterUnits="userSpaceOnUse" color-interpolation-filters="sRGB">
<feFlood flood-opacity="0" result="BackgroundImageFix"/>
<feColorMatrix in="SourceAlpha" type="matrix" values="0 0 0 0 0 0 0 0 0 0 0 0 0 0 0 0 0 0 127 0" result="hardAlpha"/>
<feOffset/>
<feGaussianBlur stdDeviation="2.5"/>
<feComposite in2="hardAlpha" operator="out"/>
<feColorMatrix type="matrix" values="0 0 0 0 1 0 0 0 0 0.882353 0 0 0 0 0 0 0 0 0.5 0"/>
<feBlend mode="normal" in2="BackgroundImageFix" result="effect1_dropShadow_3152_2601"/>
<feBlend mode="normal" in="SourceGraphic" in2="effect1_dropShadow_3152_2601" result="shape"/>
</filter>
<filter id="filter1_d_3152_2601" x="2.34247" y="0.249756" width="19.3154" height="22.969" filterUnits="userSpaceOnUse" color-interpolation-filters="sRGB">
<feFlood flood-opacity="0" result="BackgroundImageFix"/>
<feColorMatrix in="SourceAlpha" type="matrix" values="0 0 0 0 0 0 0 0 0 0 0 0 0 0 0 0 0 0 127 0" result="hardAlpha"/>
<feOffset/>
<feGaussianBlur stdDeviation="2.5"/>
<feComposite in2="hardAlpha" operator="out"/>
<feColorMatrix type="matrix" values="0 0 0 0 1 0 0 0 0 0.882353 0 0 0 0 0 0 0 0 0.5 0"/>
<feBlend mode="normal" in2="BackgroundImageFix" result="effect1_dropShadow_3152_2601"/>
<feBlend mode="normal" in="SourceGraphic" in2="effect1_dropShadow_3152_2601" result="shape"/>
</filter>
</defs>
</svg>
