<svg width="12" height="12" viewBox="0 0 12 12" fill="none" xmlns="http://www.w3.org/2000/svg">
<path d="M11.1351 1.18551C11.5256 1.57598 11.5255 2.20919 11.1351 2.59973L7.4145 6.32032L11.1344 10.0402L11.2035 10.1162C11.5238 10.509 11.5005 11.0883 11.1344 11.4544C10.7683 11.8204 10.1888 11.8438 9.79615 11.5235L9.72019 11.4544L6.00029 7.73454L2.28107 11.4538L2.20511 11.5228C1.81234 11.8431 1.23297 11.8199 0.866857 11.4538C0.500922 11.0876 0.477523 10.5082 0.797803 10.1155L0.866857 10.0395L4.58607 6.32032L0.866166 2.60042C0.475755 2.20996 0.475869 1.57673 0.866166 1.1862C1.25668 0.795692 1.88985 0.79572 2.28038 1.1862L6.00029 4.90611L9.72088 1.18551C10.1114 0.795202 10.7446 0.795223 11.1351 1.18551Z" fill="white"/>
</svg>
