<svg width="32" height="32" viewBox="0 0 32 32" fill="none" xmlns="http://www.w3.org/2000/svg">
<g id="bxs-copy 1">
<path id="Vector" d="M18.666 10.6667H5.33268C3.86202 10.6667 2.66602 11.8627 2.66602 13.3334V26.6667C2.66602 28.1374 3.86202 29.3334 5.33268 29.3334H18.666C20.1367 29.3334 21.3327 28.1374 21.3327 26.6667V13.3334C21.3327 11.8627 20.1367 10.6667 18.666 10.6667Z" fill="white"/>
<path id="Vector_2" d="M26.666 2.66675H13.3327C12.6254 2.66675 11.9472 2.9477 11.4471 3.4478C10.947 3.94789 10.666 4.62617 10.666 5.33341V8.00008H21.3327C22.0399 8.00008 22.7182 8.28103 23.2183 8.78113C23.7184 9.28123 23.9993 9.9595 23.9993 10.6667V21.3334H26.666C27.3733 21.3334 28.0515 21.0525 28.5516 20.5524C29.0517 20.0523 29.3327 19.374 29.3327 18.6667V5.33341C29.3327 4.62617 29.0517 3.94789 28.5516 3.4478C28.0515 2.9477 27.3733 2.66675 26.666 2.66675Z" fill="white"/>
</g>
</svg>
