<svg width="24" height="24" viewBox="0 0 24 24" fill="none" xmlns="http://www.w3.org/2000/svg">
<rect width="24" height="24" rx="12" fill="white"/>
<g clip-path="url(#clip0_2393_1282)">
<path d="M11.8347 19.176C11.8373 19.1152 11.8516 19.0555 11.8766 19.0004C11.9016 18.9453 11.9369 18.8959 11.9805 18.8551C12.024 18.8143 12.0749 18.7829 12.1302 18.7626C12.1855 18.7424 12.2442 18.7338 12.3027 18.7372C12.3613 18.7407 12.4186 18.7562 12.4713 18.7828C12.524 18.8095 12.5712 18.8467 12.61 18.8924C12.6487 18.9381 12.6784 18.9913 12.6972 19.049C12.7161 19.1067 12.7237 19.1677 12.7197 19.2284C12.7117 19.3493 12.6581 19.4621 12.5706 19.5422C12.4831 19.6223 12.3687 19.6634 12.2522 19.6565C12.1357 19.6496 12.0266 19.5953 11.9484 19.5053C11.8703 19.4154 11.8294 19.297 11.8347 19.176ZM8.20454 18.6779C8.25526 18.5977 8.33458 18.5417 8.42507 18.5222C8.51556 18.5027 8.60979 18.5213 8.68704 18.574C8.7643 18.6267 8.81824 18.709 8.837 18.803C8.85577 18.897 8.83782 18.9949 8.78711 19.0751C8.76199 19.1149 8.72959 19.1491 8.69174 19.1758C8.6539 19.2025 8.61136 19.2212 8.56656 19.2309C8.52175 19.2405 8.47555 19.2409 8.4306 19.232C8.38565 19.2231 8.34283 19.2051 8.30457 19.179C8.26632 19.1529 8.23339 19.1193 8.20766 19.08C8.18193 19.0407 8.16391 18.9965 8.15462 18.95C8.14533 18.9034 8.14496 18.8554 8.15353 18.8087C8.16209 18.7621 8.17943 18.7176 8.20454 18.6779ZM15.9907 18.536C16.0315 18.5145 16.076 18.5017 16.1217 18.4981C16.1673 18.4945 16.2132 18.5003 16.2566 18.5152C16.3001 18.5301 16.3403 18.5537 16.375 18.5848C16.4096 18.6158 16.4381 18.6537 16.4586 18.6962C16.4896 18.7601 16.5017 18.8321 16.4934 18.9031C16.485 18.9742 16.4565 19.0411 16.4116 19.0953C16.3666 19.1496 16.3071 19.1887 16.2407 19.2079C16.1743 19.227 16.1039 19.2253 16.0385 19.2029C15.973 19.1805 15.9154 19.1384 15.873 19.082C15.8305 19.0256 15.8052 18.9574 15.8 18.886C15.7949 18.8147 15.8103 18.7433 15.8442 18.681C15.8782 18.6187 15.9291 18.5682 15.9907 18.536ZM9.04604 16.7626C9.12419 16.6386 9.24652 16.552 9.38616 16.5217C9.52579 16.4914 9.6713 16.5199 9.79067 16.6011C9.91003 16.6823 9.99343 16.8095 10.0226 16.9546C10.0517 17.0998 10.0242 17.251 9.94604 17.375C9.86742 17.498 9.74516 17.5836 9.60595 17.6133C9.46674 17.6429 9.32189 17.6142 9.20302 17.5333C9.08416 17.4524 9.00093 17.3259 8.97152 17.1815C8.94211 17.0371 8.9689 16.8865 9.04604 16.7626ZM14.8976 16.5564C14.9606 16.5231 15.0292 16.5029 15.0996 16.4972C15.1701 16.4914 15.2409 16.5001 15.3081 16.5229C15.3753 16.5456 15.4375 16.5818 15.4912 16.6295C15.5449 16.6773 15.589 16.7355 15.621 16.8009C15.6691 16.8988 15.6884 17.0093 15.6764 17.1185C15.6644 17.2278 15.6217 17.3309 15.5536 17.4151C15.4855 17.4992 15.3951 17.5607 15.2935 17.5918C15.192 17.6228 15.0839 17.6222 14.9828 17.5898C14.8816 17.5574 14.7919 17.4949 14.7248 17.4098C14.6577 17.3248 14.6162 17.2212 14.6055 17.1118C14.5948 17.0024 14.6153 16.8922 14.6646 16.7949C14.7138 16.6976 14.7896 16.6175 14.8824 16.5647L14.8976 16.5564ZM11.699 16.2151C11.7538 16.098 11.8408 16.0004 11.9491 15.9347C12.0574 15.869 12.182 15.8381 12.3071 15.846C12.6554 15.8677 12.921 16.1781 12.901 16.5399C12.8957 16.6371 12.8697 16.7319 12.8248 16.8174C12.78 16.9029 12.7174 16.977 12.6417 17.0343C12.5659 17.0916 12.4789 17.1308 12.3868 17.149C12.2947 17.1671 12.1998 17.1638 12.1091 17.1393C12.0184 17.1148 11.9341 17.0697 11.8622 17.0072C11.7903 16.9447 11.7326 16.8665 11.6934 16.778C11.6542 16.6896 11.6343 16.5933 11.6353 16.4959C11.6362 16.3986 11.658 16.3026 11.699 16.2151ZM6.0971 15.1968C6.20177 15.1427 6.32278 15.1337 6.43377 15.1718C6.54477 15.21 6.63677 15.2921 6.68974 15.4003C6.74271 15.5086 6.75236 15.6342 6.71658 15.7498C6.68081 15.8654 6.60251 15.9616 6.49874 16.0176C6.39497 16.0735 6.27412 16.0846 6.16252 16.0484C6.05092 16.0122 5.9576 15.9317 5.90289 15.8244C5.84817 15.7171 5.83649 15.5917 5.87038 15.4755C5.90428 15.3592 5.981 15.2616 6.08385 15.2039L6.0971 15.1968ZM17.9624 15.3277C17.994 15.2765 18.0351 15.2323 18.0832 15.1977C18.1314 15.163 18.1857 15.1387 18.243 15.126C18.3003 15.1133 18.3594 15.1125 18.417 15.1237C18.4746 15.1348 18.5295 15.1578 18.5784 15.1911C18.6274 15.2245 18.6696 15.2676 18.7025 15.318C18.7353 15.3683 18.7582 15.425 18.7699 15.4846C18.7815 15.5442 18.7817 15.6056 18.7704 15.6653C18.759 15.725 18.7364 15.7818 18.7038 15.8323C18.6388 15.9331 18.5381 16.0032 18.4237 16.0273C18.3092 16.0515 18.1902 16.0277 18.0925 15.9612C17.9949 15.8948 17.9264 15.7909 17.902 15.6723C17.8776 15.5536 17.8993 15.4298 17.9624 15.3277ZM10.5306 13.286C10.7415 13.1678 10.9844 13.1259 11.2208 13.1672C11.4572 13.2084 11.6736 13.3304 11.8357 13.5138C11.9979 13.6971 12.0965 13.9314 12.116 14.1796C12.1354 14.4277 12.0747 14.6755 11.9433 14.8838C11.8456 15.0395 11.7119 15.1674 11.5543 15.2557C11.3968 15.344 11.2205 15.39 11.0415 15.3893C10.8018 15.3891 10.569 15.3059 10.38 15.1528C10.191 14.9997 10.0565 14.7856 9.99787 14.5442C9.93924 14.3028 9.9598 14.048 10.0563 13.8201C10.1528 13.5922 10.3197 13.4043 10.5306 13.286ZM13.252 13.2019C13.4964 13.1202 13.7608 13.1318 13.9977 13.2347C14.2346 13.3376 14.4282 13.525 14.5439 13.7631C14.8097 14.3142 14.5966 14.985 14.067 15.2634C13.9166 15.3426 13.7506 15.3845 13.582 15.3857C13.3253 15.3857 13.077 15.2904 12.8819 15.1171C12.6868 14.9438 12.5577 14.7038 12.5179 14.4403C12.4781 14.1769 12.5302 13.9074 12.6648 13.6803C12.7993 13.4533 13.0076 13.2836 13.252 13.2019ZM8.06492 13.8231C8.12602 13.7494 8.20211 13.6906 8.2877 13.6511C8.3733 13.6116 8.46627 13.5923 8.55991 13.5946C8.65356 13.5969 8.74555 13.6207 8.82926 13.6644C8.91296 13.708 8.98631 13.7704 9.044 13.8471C9.10169 13.9237 9.14229 14.0127 9.16288 14.1076C9.18347 14.2025 9.18354 14.301 9.16308 14.3959C9.14261 14.4909 9.10213 14.5799 9.04454 14.6567C8.98695 14.7334 8.91369 14.7959 8.83004 14.8397C8.69922 14.9082 8.54959 14.9274 8.40663 14.8942C8.26367 14.8609 8.13623 14.7772 8.046 14.6574C7.95578 14.5375 7.90835 14.3888 7.9118 14.2367C7.91525 14.0846 7.96936 13.9385 8.06492 13.8231ZM15.5492 13.8738C15.7412 13.57 16.1339 13.4854 16.4262 13.6849C16.7181 13.8847 16.7994 14.2919 16.6081 14.5958C16.4162 14.8995 16.0235 14.984 15.7311 14.7847C15.4387 14.5853 15.3572 14.1775 15.5492 13.8738ZM8.68879 11.9278C8.72242 11.3194 9.21867 10.8509 9.80504 10.874C10.3913 10.8971 10.8519 11.4033 10.8412 12.0126C10.8305 12.615 10.3628 13.0991 9.78511 13.1106L9.76536 13.1108H9.70648C9.11829 13.0751 8.66754 12.5565 8.69079 11.9475L8.69173 11.9272L8.68879 11.9278ZM13.7707 11.9152C13.8048 11.2982 14.3141 10.8268 14.9082 10.8622C15.0493 10.8697 15.1875 10.9063 15.3149 10.9699C15.4422 11.0336 15.5561 11.1229 15.6499 11.2327C15.7871 11.3922 15.8774 11.5893 15.9101 11.8005C15.9427 12.0117 15.9164 12.2283 15.8342 12.4244C15.752 12.6206 15.6174 12.7882 15.4463 12.9073C15.2752 13.0264 15.0748 13.0921 14.8689 13.0965L14.8469 13.0968H14.7845C14.1904 13.0614 13.7365 12.5324 13.7706 11.9154L13.7707 11.9152ZM6.12585 11.9661C6.13395 11.8182 6.19828 11.6797 6.3047 11.581C6.41112 11.4823 6.55092 11.4316 6.69336 11.4399C6.83585 11.4485 6.96925 11.5154 7.06427 11.626C7.15929 11.7366 7.20814 11.8819 7.2001 12.0299C7.19197 12.1778 7.12757 12.3164 7.02109 12.415C6.9146 12.5137 6.77475 12.5643 6.63229 12.5559C6.48984 12.5474 6.35645 12.4805 6.26148 12.3699C6.1665 12.2593 6.11772 12.1141 6.12585 11.9661ZM17.4145 11.9408C17.4234 11.7934 17.488 11.6557 17.5944 11.5576C17.7007 11.4596 17.8401 11.4093 17.982 11.4177C18.124 11.4261 18.257 11.4925 18.3519 11.6024C18.4469 11.7123 18.4961 11.8568 18.4888 12.0042C18.4806 12.1522 18.4162 12.2908 18.3097 12.3895C18.2032 12.4882 18.0633 12.539 17.9208 12.5306C17.7784 12.5221 17.645 12.4552 17.5501 12.3446C17.4552 12.234 17.4064 12.0887 17.4145 11.9408ZM4.66192 11.6431L4.67492 11.6436C4.7206 11.6461 4.76534 11.6581 4.80658 11.6787C4.84781 11.6993 4.88472 11.7281 4.91519 11.7636C4.94566 11.799 4.96908 11.8404 4.98411 11.8852C4.99915 11.9301 5.00549 11.9776 5.00279 12.0251C4.99887 12.0958 4.97501 12.1638 4.93417 12.2206C4.89334 12.2773 4.83733 12.3204 4.77312 12.3443C4.70892 12.3683 4.63935 12.3721 4.57306 12.3553C4.50678 12.3385 4.44672 12.3019 4.40034 12.2499C4.35397 12.1979 4.32333 12.1329 4.31224 12.063C4.30115 11.9931 4.31011 11.9213 4.33798 11.8567C4.36586 11.792 4.41143 11.7373 4.46903 11.6993C4.52663 11.6613 4.5937 11.6417 4.66192 11.6431ZM19.9647 11.6057L19.9792 11.6063C20.0714 11.612 20.1577 11.6554 20.2191 11.727C20.2806 11.7986 20.3122 11.8926 20.307 11.9884C20.3031 12.0592 20.2792 12.1273 20.2384 12.1841C20.1975 12.2409 20.1415 12.284 20.0772 12.3081C20.013 12.3321 19.9433 12.336 19.877 12.3193C19.8106 12.3025 19.7504 12.2659 19.7039 12.2139C19.6574 12.162 19.6267 12.097 19.6155 12.027C19.6043 11.957 19.6131 11.8852 19.6409 11.8204C19.6687 11.7556 19.7142 11.7007 19.7717 11.6625C19.8293 11.6244 19.8964 11.6046 19.9647 11.6057ZM11.0321 8.58671C11.2314 8.58573 11.4271 8.6424 11.5972 8.75037C11.7673 8.85835 11.905 9.01337 11.9951 9.19807C12.0783 9.36875 12.118 9.55873 12.1104 9.74988C12.1028 9.94102 12.0482 10.127 11.9517 10.2899C11.8552 10.4529 11.7201 10.5875 11.5594 10.6808C11.3986 10.7741 11.2174 10.8231 11.0332 10.8231C10.8335 10.8237 10.6375 10.7664 10.4674 10.6577C10.2972 10.5489 10.1597 10.393 10.0703 10.2074C9.98805 10.0369 9.94913 9.84738 9.9572 9.65685C9.96528 9.46632 10.0201 9.28109 10.1164 9.11874C10.2128 8.95638 10.3475 8.82229 10.5077 8.72918C10.668 8.63607 10.8485 8.58703 11.0321 8.58671ZM13.5732 8.57879C13.8128 8.57912 14.0456 8.66245 14.2345 8.81561C14.4234 8.96877 14.5578 9.18299 14.6163 9.42439C14.6749 9.66578 14.6542 9.92055 14.5576 10.1484C14.461 10.3762 14.2941 10.5641 14.0831 10.6823C13.8722 10.8004 13.6293 10.8422 13.393 10.8009C13.1566 10.7595 12.9403 10.6376 12.7782 10.4542C12.6161 10.2708 12.5176 10.0365 12.4981 9.78841C12.4787 9.5403 12.5394 9.29254 12.6708 9.08434C12.769 8.92891 12.9029 8.80131 13.0604 8.71305C13.218 8.6248 13.3942 8.57865 13.5732 8.57879ZM8.00598 9.37418C8.19779 9.07038 8.59036 8.98554 8.88286 9.18476C9.17536 9.38392 9.25704 9.79171 9.06536 10.0955C8.87354 10.3993 8.48098 10.4842 8.18848 10.2851C8.11884 10.2378 8.05887 10.1767 8.012 10.1052C7.96513 10.0338 7.93228 9.95354 7.91533 9.86893C7.89837 9.78432 7.89766 9.69707 7.91321 9.61218C7.92877 9.52728 7.96029 9.44641 8.00598 9.37418ZM15.7852 9.13023C15.8595 9.09128 15.9404 9.06792 16.0234 9.0615C16.1064 9.05507 16.1898 9.06571 16.2688 9.09279C16.3478 9.11987 16.4209 9.16288 16.4839 9.21934C16.5469 9.2758 16.5985 9.34461 16.6359 9.42183C16.7932 9.74633 16.6674 10.1419 16.355 10.3053C16.0426 10.4687 15.6618 10.3381 15.5044 10.0136C15.3471 9.68914 15.4729 9.29362 15.7852 9.13017V9.13023ZM5.91104 8.13796C5.9755 8.03585 6.07637 7.96451 6.19146 7.93965C6.24845 7.92734 6.30722 7.9268 6.36441 7.93808C6.42159 7.94936 6.47608 7.97222 6.52476 8.00537C6.57344 8.03852 6.61536 8.0813 6.64812 8.13127C6.68088 8.18125 6.70384 8.23743 6.71569 8.29662C6.72755 8.35581 6.72806 8.41685 6.7172 8.47624C6.70635 8.53564 6.68433 8.59223 6.65242 8.64279C6.58796 8.7449 6.48709 8.81624 6.372 8.8411C6.2569 8.86597 6.13701 8.84233 6.0387 8.77538C5.94039 8.70843 5.87171 8.60367 5.84777 8.48413C5.82383 8.36459 5.84659 8.24007 5.91104 8.13796ZM18.118 7.95165C18.2228 7.89841 18.3436 7.8902 18.4542 7.92882C18.5647 7.96744 18.6562 8.04977 18.7087 8.15795C18.7612 8.26614 18.7705 8.39146 18.7346 8.50675C18.6988 8.62203 18.6206 8.71798 18.517 8.77379C18.412 8.82868 18.2902 8.83801 18.1785 8.79972C18.0668 8.76142 17.9743 8.67865 17.9214 8.56957C17.8686 8.46053 17.8596 8.33417 17.8965 8.21829C17.9334 8.10241 18.0131 8.00648 18.118 7.95159V7.95165ZM11.6649 7.43001C11.6849 7.06746 11.9841 6.79034 12.3332 6.81099C12.6823 6.83163 12.9492 7.14224 12.9295 7.50492C12.9098 7.86746 12.6109 8.14484 12.2617 8.12452C11.9123 8.10381 11.6451 7.79294 11.6649 7.43001ZM9.23211 6.41559C9.2952 6.38257 9.36394 6.36279 9.4344 6.35736C9.50486 6.35193 9.57566 6.36097 9.64276 6.38396C9.70985 6.40695 9.77193 6.44344 9.82545 6.49135C9.87897 6.53926 9.92288 6.59764 9.95467 6.66318C9.98646 6.72871 10.0055 6.8001 10.0107 6.87329C10.016 6.94647 10.0073 7.02 9.98513 7.08969C9.96299 7.15938 9.92786 7.22385 9.88173 7.27944C9.83561 7.33502 9.77939 7.38063 9.71629 7.41365C9.58886 7.48033 9.44115 7.49171 9.30564 7.44528C9.17014 7.39885 9.05794 7.29841 8.99373 7.16606C8.92952 7.03372 8.91857 6.88029 8.96327 6.73955C9.00797 6.59881 9.10468 6.48228 9.23211 6.41559ZM14.6669 6.59489C14.7251 6.50231 14.8085 6.42976 14.9065 6.3864C15.0045 6.34303 15.1126 6.33081 15.2173 6.35127C15.3219 6.37173 15.4184 6.42396 15.4945 6.50135C15.5705 6.57874 15.6228 6.67782 15.6447 6.78606C15.6666 6.89431 15.6571 7.00686 15.6174 7.1095C15.5777 7.21213 15.5096 7.30024 15.4217 7.36268C15.3338 7.42512 15.23 7.4591 15.1235 7.46031C15.0171 7.46153 14.9126 7.42993 14.8234 7.36951C14.7641 7.3294 14.7129 7.27753 14.6729 7.21686C14.6329 7.15619 14.6049 7.08791 14.5903 7.01595C14.5758 6.94399 14.5751 6.86975 14.5882 6.7975C14.6013 6.72524 14.6281 6.65639 14.6669 6.59489ZM8.30736 4.78885C8.38963 4.74606 8.48487 4.73881 8.57228 4.76868C8.65968 4.79856 8.73217 4.86313 8.7739 4.94831C8.81564 5.03348 8.82324 5.13235 8.79504 5.22332C8.76685 5.3143 8.70515 5.39 8.62342 5.4339C8.58241 5.45568 8.53766 5.46881 8.49174 5.47254C8.44582 5.47628 8.39965 5.47053 8.35588 5.45565C8.31211 5.44076 8.27161 5.41703 8.23671 5.38581C8.20181 5.35459 8.17321 5.31651 8.15254 5.27376C8.11133 5.1881 8.10449 5.08897 8.1335 4.99809C8.16252 4.9072 8.22503 4.83196 8.30736 4.78885ZM15.827 4.89531C15.852 4.85552 15.8844 4.82125 15.9221 4.79445C15.9599 4.76764 16.0024 4.74883 16.0472 4.73909C16.092 4.72934 16.1382 4.72886 16.1832 4.73766C16.2282 4.74646 16.271 4.76437 16.3093 4.79038C16.3476 4.81638 16.3806 4.84997 16.4064 4.88922C16.4322 4.92846 16.4504 4.97261 16.4597 5.01913C16.4691 5.06565 16.4696 5.11363 16.4611 5.16034C16.4526 5.20705 16.4354 5.25156 16.4104 5.29135C16.3598 5.3717 16.2806 5.4279 16.1901 5.44758C16.0997 5.46727 16.0054 5.44882 15.928 5.39631C15.8507 5.34381 15.7966 5.26153 15.7776 5.16758C15.7587 5.07364 15.7764 4.97566 15.827 4.89531ZM12.1454 4.33315C12.2005 4.31227 12.2591 4.30297 12.3177 4.30579C12.3764 4.30862 12.4339 4.32352 12.487 4.34962C12.54 4.37572 12.5875 4.41251 12.6268 4.45785C12.666 4.50318 12.6962 4.55617 12.7156 4.61372C12.735 4.67128 12.7432 4.73226 12.7397 4.79312C12.7362 4.85398 12.7211 4.91352 12.6952 4.96827C12.6694 5.02302 12.6333 5.07189 12.5892 5.11205C12.545 5.15222 12.4936 5.18287 12.4379 5.20222C12.3274 5.24065 12.2068 5.23233 12.1021 5.17906C11.9975 5.12579 11.9172 5.03187 11.8788 4.91761C11.8403 4.80336 11.8467 4.67797 11.8966 4.56858C11.9465 4.4592 12.0359 4.37462 12.1454 4.33315Z" fill="black"/>
</g>
<defs>
<clipPath id="clip0_2393_1282">
<rect width="16" height="15.3846" fill="white" transform="translate(4.30762 4.30774)"/>
</clipPath>
</defs>
</svg>
