<svg width="24" height="24" viewBox="0 0 24 24" fill="none" xmlns="http://www.w3.org/2000/svg">
<rect width="24" height="24" rx="12" fill="white"/>
<path d="M13.372 13.542L12.7213 15.2539C12.701 15.3023 12.701 15.3563 12.7213 15.4046L13.837 18.353L15.1341 17.6355L13.5802 13.542C13.572 13.5219 13.5576 13.5046 13.539 13.4924C13.5205 13.4802 13.4985 13.4737 13.4761 13.4737C13.4536 13.4737 13.4317 13.4802 13.4131 13.4924C13.3945 13.5046 13.3802 13.5219 13.372 13.542ZM14.6734 10.6581C14.6655 10.6376 14.6513 10.6199 14.6327 10.6074C14.6141 10.595 14.5919 10.5883 14.5693 10.5883C14.5466 10.5883 14.5245 10.595 14.5059 10.6074C14.4873 10.6199 14.4731 10.6376 14.4652 10.6581L13.8145 12.3692C13.7942 12.4175 13.7942 12.4716 13.8145 12.5199L15.6477 17.3484L16.9413 16.631L14.6734 10.6539V10.6581Z" fill="black"/>
<path d="M12.0002 5.10202C12.0393 5.10202 12.0761 5.11208 12.1104 5.13221L18.0667 8.51835C18.1004 8.5369 18.1284 8.56397 18.1478 8.59673C18.1671 8.62949 18.1772 8.66673 18.1768 8.70456V15.2916C18.177 15.3293 18.1669 15.3663 18.1475 15.3989C18.1281 15.4314 18.1002 15.4584 18.0667 15.4768L12.1104 18.876C12.0767 18.8944 12.0388 18.904 12.0002 18.904C11.9617 18.904 11.9238 18.8944 11.8901 18.876L5.93378 15.4829C5.8999 15.4642 5.87179 15.437 5.8524 15.4041C5.83302 15.3711 5.82308 15.3337 5.82363 15.2956V8.70456C5.82363 8.62605 5.86789 8.5576 5.93378 8.51835L11.8901 5.13221C11.9227 5.11076 11.9609 5.09888 12.0002 5.09799V5.10202ZM12.0002 4.23535C11.7933 4.23535 11.5812 4.29071 11.3959 4.39439L5.54568 7.68591C5.36239 7.78891 5.21005 7.93727 5.10398 8.11608C4.99791 8.29489 4.94184 8.49785 4.94141 8.70456V15.2916C4.94141 15.7104 5.17097 16.1029 5.54568 16.3143L11.3959 19.6058C11.5795 19.7099 11.788 19.7648 12.0002 19.7648C12.2124 19.7648 12.4209 19.7099 12.6045 19.6058L18.4548 16.3143C18.6394 16.2118 18.7927 16.0629 18.8989 15.8832C19.0051 15.7034 19.0604 15.4992 19.059 15.2916V8.70456C19.059 8.28583 18.8295 7.89326 18.4548 7.68591L12.6045 4.39439C12.4204 4.29154 12.2123 4.23677 12.0002 4.23535Z" fill="black"/>
<path d="M11.5973 8.47058H10.2224C10.1718 8.47165 10.1229 8.48759 10.0821 8.51626C10.0412 8.54492 10.0105 8.58493 9.99399 8.6309L7.05859 16.4565L8.47348 17.2536L11.7115 8.63549C11.7185 8.617 11.7208 8.59716 11.7182 8.57764C11.7155 8.55812 11.7081 8.53949 11.6964 8.52332C11.6848 8.50715 11.6692 8.49392 11.6512 8.48474C11.6331 8.47556 11.613 8.47071 11.5925 8.47058H11.5973ZM13.9951 8.47058H12.6249C12.5749 8.47138 12.5262 8.48678 12.4855 8.51475C12.4447 8.54272 12.4137 8.58195 12.3965 8.62724L9.03583 17.5559L10.4555 18.3529L14.1093 8.63182C14.12 8.60476 14.1201 8.57485 14.1096 8.5477C14.0991 8.52055 14.0787 8.49801 14.0522 8.48432C14.0346 8.47539 14.015 8.47067 13.9951 8.47058Z" fill="black"/>
</svg>
