<svg width="24" height="24" viewBox="0 0 24 24" fill="none" xmlns="http://www.w3.org/2000/svg">
<rect width="24" height="24" rx="12" fill="white"/>
<path d="M14.6973 13.1208L16.2828 14.7066L11.9936 19L7.70433 14.7072L9.28925 13.1208L11.9936 15.8417L14.6973 13.1208ZM17.4022 10.4139L19 11.9997L17.4162 13.5856L15.8313 11.9997L17.4022 10.4139ZM11.9936 10.4139L13.5779 11.9857L11.993 13.5721L10.4087 11.9997L11.9936 10.4139ZM6.58433 10.4139L8.15583 11.9997L6.5855 13.5715L5 11.9997L6.58433 10.4139ZM11.9942 5L16.2817 9.27877L14.6967 10.864L11.9942 8.15769L9.28983 10.8786L7.70492 9.29278L11.9942 5Z" fill="black"/>
</svg>
