<svg width="24" height="24" viewBox="0 0 24 24" fill="none" xmlns="http://www.w3.org/2000/svg">
<rect width="24" height="24" rx="12" fill="white"/>
<path fill-rule="evenodd" clip-rule="evenodd" d="M7.125 10.875V7.06125C6.87438 6.97309 6.66304 6.79907 6.52842 6.57002C6.39381 6.34097 6.3446 6.07167 6.38952 5.80981C6.43443 5.54795 6.57057 5.31044 6.77382 5.13935C6.97707 4.96825 7.23432 4.87461 7.5 4.875H12C13.8897 4.875 15.7019 5.62567 17.0381 6.96187C18.3743 8.29806 19.125 10.1103 19.125 12C19.125 13.8897 18.3743 15.7019 17.0381 17.0381C15.7019 18.3743 13.8897 19.125 12 19.125H7.5C7.23432 19.1254 6.97707 19.0318 6.77382 18.8607C6.57057 18.6896 6.43443 18.452 6.38952 18.1902C6.3446 17.9283 6.39381 17.659 6.52842 17.43C6.66304 17.2009 6.87438 17.0269 7.125 16.9388V13.125H6C5.70163 13.125 5.41548 13.0065 5.2045 12.7955C4.99353 12.5845 4.875 12.2984 4.875 12C4.875 11.7016 4.99353 11.4155 5.2045 11.2045C5.41548 10.9935 5.70163 10.875 6 10.875H7.125ZM9.375 13.125V16.875H12C13.2929 16.875 14.5329 16.3614 15.4471 15.4471C16.3614 14.5329 16.875 13.2929 16.875 12C16.875 10.7071 16.3614 9.4671 15.4471 8.55286C14.5329 7.63862 13.2929 7.125 12 7.125H9.375V10.875H12.75C13.0484 10.875 13.3345 10.9935 13.5455 11.2045C13.7565 11.4155 13.875 11.7016 13.875 12C13.875 12.2984 13.7565 12.5845 13.5455 12.7955C13.3345 13.0065 13.0484 13.125 12.75 13.125H9.375Z" fill="black"/>
</svg>
