<svg width="24" height="24" viewBox="0 0 24 24" fill="none" xmlns="http://www.w3.org/2000/svg">
<rect width="24" height="24" rx="12" fill="white"/>
<path fill-rule="evenodd" clip-rule="evenodd" d="M5.75102 15.4544C6.25871 15.8174 6.90964 15.9989 7.70383 15.9989C8.666 15.9989 9.43406 15.782 10.008 15.348C10.5819 14.9066 10.986 14.2422 11.2203 13.3547C11.3603 12.8107 11.4804 12.2503 11.5807 11.6736C11.6143 11.466 11.6311 11.294 11.6311 11.1578C11.6311 10.7042 11.5142 10.3156 11.2805 9.99175C11.0467 9.66093 10.7261 9.41457 10.3188 9.25266C9.91141 9.08469 9.45062 9.00047 8.93641 9C7.0466 9 5.87468 9.8912 5.42066 11.6736C5.28171 12.2305 5.15801 12.7911 5.0497 13.3547C5.01995 13.5282 5.00334 13.7037 5 13.8797C5 14.5604 5.25034 15.0853 5.75102 15.4544ZM9.36756 13.2973C9.17578 14.0413 8.64664 14.5264 7.84522 14.5264C7.05219 14.5264 6.78132 13.9895 6.92411 13.2973C7.02352 12.7614 7.14377 12.2296 7.28457 11.703C7.49175 10.8988 7.9775 10.474 8.80692 10.474C9.59644 10.474 9.85611 11.0031 9.71823 11.703C9.6204 12.2384 9.50367 12.7702 9.36826 13.2973M12.4039 15.9296C12.4243 15.9533 12.4498 15.9719 12.4786 15.984C12.5074 15.9962 12.5386 16.0015 12.5697 15.9996H13.8947C13.9625 15.9983 14.0278 15.9736 14.0795 15.9296C14.1371 15.8858 14.1755 15.8213 14.1866 15.7498L14.6058 13.7901H15.9539C16.8043 13.7901 17.47 13.3771 17.9578 13.0104C18.4515 12.6436 18.7795 12.077 18.9419 11.3103C18.9806 11.1302 19 10.9569 19 10.7903C19 10.2108 18.7791 9.76755 18.3372 9.46053C17.9018 9.15351 17.3237 9 16.6027 9H14.0109C13.9428 9.00115 13.8773 9.02589 13.8254 9.06999C13.7678 9.11384 13.7294 9.17831 13.7183 9.24986L12.3745 15.7491C12.3606 15.8105 12.3708 15.8749 12.4032 15.9289M17.1382 11.2894C17.0171 11.8248 16.5502 12.3154 16.0022 12.3154H14.8816L15.268 10.4733H16.4369C16.8351 10.4733 17.1676 10.5517 17.1676 10.9898C17.1676 11.0766 17.1578 11.1764 17.1382 11.2894Z" fill="black"/>
</svg>
