<svg width="24" height="24" viewBox="0 0 24 24" fill="none" xmlns="http://www.w3.org/2000/svg">
<rect width="24" height="24" rx="12" fill="white"/>
<path d="M16.156 9.34408C16.083 9.41021 15.9885 9.44771 15.89 9.44967H6.54212C6.21078 9.44967 6.04278 9.0705 6.27261 8.84825L7.80737 7.36775C7.87895 7.29891 7.97406 7.25991 8.07336 7.25867H17.4574C17.7929 7.25867 17.9574 7.64133 17.724 7.86358L16.156 9.34408ZM16.156 16.6392C16.0831 16.705 15.9883 16.7414 15.89 16.7413H6.54212C6.21078 16.7413 6.04278 16.3657 6.27261 16.1434L7.80737 14.6594C7.87926 14.5916 7.97451 14.554 8.07336 14.5544H17.4574C17.7929 14.5544 17.9574 14.9336 17.724 15.1553L16.156 16.6392ZM16.156 11.0101C16.0831 10.9443 15.9883 10.9079 15.89 10.908H6.54212C6.21078 10.908 6.04278 11.2837 6.27261 11.5059L7.80737 12.9899C7.88039 13.056 7.97486 13.0935 8.07336 13.0955H17.4574C17.7929 13.0955 17.9574 12.7163 17.724 12.4941L16.156 11.0101Z" fill="black"/>
</svg>
