<svg width="24" height="24" viewBox="0 0 24 24" fill="none" xmlns="http://www.w3.org/2000/svg">
<rect width="24" height="24" rx="12" fill="white"/>
<path d="M10.9294 8.62354C11.1793 8.33782 11.081 7.91382 11.081 7.91382L10.3543 8.9624C10.3434 8.9624 10.6152 8.97268 10.9294 8.62354ZM8.45274 14.3081L8.54008 13.8916C8.54008 13.8916 8.17917 14.495 8.14642 14.5784C8.11366 14.6721 8.16826 14.8384 8.31019 14.8281C8.45274 14.8179 8.62743 14.6201 8.62743 14.4739C8.62743 14.287 8.45274 14.3081 8.45274 14.3081Z" fill="black"/>
<path d="M14.9784 7.60868C14.9784 7.60868 15.5292 7.62982 16.1018 7.69268C14.8134 6.72467 13.5906 6.44067 12.5994 6.44067C11.234 6.44067 10.309 6.97724 10.2538 7.00867L10.6833 6.35667C10.6833 6.35667 8.96484 6.19838 8.35948 7.93496C8.2048 7.56639 8.06226 7.02981 8.06226 7.02981C8.06226 7.02981 7.16999 7.77725 7.58852 9.0184C6.56402 8.66125 5.09915 8.16696 5.04395 8.15611C4.96691 8.14582 4.94508 8.17725 4.94508 8.17725C4.94508 8.17725 4.92263 8.20925 4.98875 8.26182C5.11006 8.35611 7.42293 9.98755 7.92942 10.303C7.81963 10.6818 7.81963 10.8607 7.92942 11.0401C8.08409 11.2818 8.09501 11.4081 8.07318 11.587C8.05073 11.7658 7.85238 13.3127 7.80871 13.5024C7.76443 13.6916 7.30222 14.3653 7.32345 14.5653C7.34589 14.7653 7.6328 15.6173 7.88574 15.7121C8.07318 15.775 8.53538 15.9121 8.84413 15.9121C8.95392 15.9121 9.0534 15.891 9.09707 15.8493C9.2845 15.691 9.3397 15.6596 9.47193 15.6596H9.50469C9.55928 15.6596 9.626 15.6699 9.70304 15.6699C9.87894 15.6699 10.1107 15.6384 10.2756 15.491C10.5183 15.2596 10.9368 14.9436 11.0684 14.7967C11.234 14.5967 11.322 14.3224 11.2777 14.0493C11.2449 13.7967 11.3881 13.5756 11.5531 13.355C11.7624 13.0921 12.1475 12.6178 12.1475 12.6178C12.9082 13.1653 13.3813 13.9967 13.3813 14.923C13.3813 16.5642 11.8837 17.8904 10.033 17.8904C9.75097 17.8905 9.46993 17.8586 9.19594 17.7956C10.0445 18.0796 10.7603 18.1744 11.3438 18.1744C12.5885 18.1744 13.2497 17.743 13.2497 17.743C13.2497 17.743 13.018 18.027 12.6431 18.3533H12.6552C14.7145 18.0796 15.7166 16.459 15.7166 16.459C15.7166 16.459 15.6396 16.9853 15.5407 17.343C18.2824 15.375 17.8202 12.9127 17.8093 12.8287C17.8311 12.8601 18.1065 13.1761 18.2497 13.3441C18.69 9.00868 14.9784 7.60868 14.9784 7.60868ZM10.7603 14.5327C10.716 14.5853 10.5292 14.7436 10.3964 14.859C10.2647 14.975 10.1216 15.0904 10.0112 15.1961C9.9675 15.2379 9.87894 15.259 9.74671 15.259H9.41674C9.58172 15.0487 10.0664 14.5641 10.2314 14.459C10.4297 14.3333 10.5286 14.2064 10.4073 13.9859C10.2866 13.7647 9.9675 13.8173 9.9675 13.8173C9.9675 13.8173 10.1543 13.7436 10.3193 13.7436C10.1107 13.691 9.84619 13.7436 9.72487 13.8596C9.59264 13.975 9.61508 14.3853 9.55989 14.6481C9.50469 14.9224 9.31726 15.059 9.03095 15.3116C8.87688 15.4487 8.76649 15.4904 8.67914 15.4904C8.48823 15.4585 8.30024 15.4126 8.11685 15.3533C8.00706 15.2167 7.84146 14.7647 7.79779 14.575C7.83055 14.4699 7.96278 14.2487 8.02829 14.1224C8.16113 13.8801 8.23816 13.7436 8.26 13.6173C8.30428 13.4384 8.44743 12.3333 8.50263 11.8704C8.64578 12.0493 8.84413 12.3441 8.79985 12.5333C9.11951 12.1018 8.8878 11.6813 8.77801 11.5127C8.67854 11.3441 8.5463 11.0076 8.6567 10.6498C8.76649 10.2921 9.16319 9.30297 9.16319 9.30297C9.16319 9.30297 9.29542 9.52411 9.48285 9.48183C9.66968 9.43954 11.1788 7.2721 11.1788 7.2721C11.1788 7.2721 11.5864 8.12411 11.157 8.74525C10.716 9.36583 10.2866 9.48183 10.2866 9.48183C10.2866 9.48183 10.8925 9.58697 11.4542 9.19783C11.6853 9.71326 11.9055 10.2498 11.917 10.3235C11.8837 10.3973 11.4433 11.4076 11.399 11.4704C11.3772 11.4916 11.2231 11.5333 11.1127 11.555C10.9253 11.6076 10.8155 11.639 10.7712 11.6704C10.6942 11.7333 10.3418 12.6596 10.1768 13.1121C9.9538 13.1662 9.76089 13.2979 9.63692 13.4807C9.71396 13.4281 9.95598 13.3961 10.1325 13.3756C10.2866 13.3647 10.7603 13.607 10.8816 14.0596V14.0801C10.9034 14.2487 10.8482 14.4064 10.7603 14.5327ZM9.72487 14.659C9.82435 14.5219 9.81283 14.291 9.82435 14.2173C9.83527 14.143 9.85711 14.0064 9.94567 13.9859C10.0336 13.9647 10.2429 13.9961 10.2429 14.1436C10.2429 14.2807 10.0882 14.3121 9.97842 14.4064C9.90139 14.4807 9.74671 14.6379 9.72487 14.659ZM14.1195 12.6493C14.2299 12.1121 14.2408 11.6493 14.2075 11.2704C14.6378 11.8265 14.9039 12.4801 14.9784 13.1647C14.9893 13.2493 15.0779 13.3333 15.1658 13.4173C15.2429 13.4801 15.3308 13.5647 15.3308 13.6173C15.3308 13.8596 15.309 14.1013 15.2647 14.343C15.2538 14.375 15.1549 14.4276 15.0779 14.4699C14.9675 14.5224 14.8686 14.575 14.8462 14.659C14.6044 15.4648 14.0951 16.1765 13.3928 16.6899C14.4167 15.6693 14.9123 13.9859 14.1195 12.6493ZM13.4256 16.7847C14.1413 16.259 14.6921 15.5219 14.9347 14.6904C14.9457 14.659 15.0445 14.6064 15.1106 14.5647C15.221 14.5116 15.3308 14.4487 15.3533 14.3647C15.3969 14.1224 15.4194 13.8699 15.4194 13.6173C15.4194 13.5224 15.3199 13.4281 15.221 13.3333C15.1658 13.2704 15.0779 13.1961 15.0779 13.1436C14.9884 12.3802 14.6755 11.6553 14.1741 11.0498C13.9545 9.78697 13.0732 9.39783 13.0513 9.38697C13.0732 9.4184 13.6458 10.2081 13.2497 11.1338C12.8421 12.071 11.7957 11.923 11.7078 11.9338C11.6192 11.9338 11.2777 12.3544 10.8482 13.1333C10.6698 13.0824 10.4812 13.0716 10.2975 13.1018C10.4958 12.5756 10.793 11.8287 10.8482 11.7653C10.8707 11.7441 11.0357 11.7024 11.1455 11.6704C11.3547 11.6178 11.4542 11.5864 11.487 11.5447C11.5094 11.5127 11.6192 11.2704 11.7296 11.0184C11.8285 11.0184 12.0814 10.9973 12.1039 10.9864C12.1263 10.9653 12.3356 10.4498 12.3356 10.3864C12.3356 10.3344 11.9055 9.31326 11.7405 8.92354C11.8256 8.82769 11.9029 8.72587 11.9716 8.61897C14.2299 8.8504 15.992 10.6818 15.992 12.9018C15.9937 13.7106 15.754 14.5034 15.3003 15.19C14.8466 15.8766 14.1972 16.4292 13.4262 16.7847H13.4256Z" fill="black"/>
<path d="M10.5067 11.1161C10.7148 10.8853 10.605 10.455 10.2216 10.3818C10.3199 10.1613 10.4625 9.7207 10.4625 9.7207C10.4625 9.7207 9.34332 11.399 9.24445 11.431C9.14558 11.4624 9.04732 11.095 9.04732 11.095C8.83865 11.8607 9.39852 11.9659 9.46403 11.7247C9.77156 11.651 10.2981 11.3361 10.5067 11.1161Z" fill="black"/>
</svg>
