<svg width="24" height="24" viewBox="0 0 24 24" fill="none" xmlns="http://www.w3.org/2000/svg">
<rect width="24" height="24" rx="12" fill="white"/>
<path fill-rule="evenodd" clip-rule="evenodd" d="M10.7779 6.59904C10.6618 5.63871 9.76459 4.97179 8.81158 5.13747C7.85856 5.30315 7.23906 6.23376 7.45393 7.1769L8.08466 9.94531C7.26132 10.4323 6.59102 11.0656 6.13903 11.7949C6.04481 12.109 5.99579 12.4302 5.99579 12.7525C5.99579 15.0326 8.45031 17.2636 12.0099 17.2636C15.5695 17.2636 18.0241 15.0326 18.0241 12.7525C18.0241 12.249 17.9044 11.748 17.6797 11.2729C17.206 10.6945 16.5857 10.1948 15.8588 9.80499L16.458 7.17684C16.673 6.23377 16.0536 5.30314 15.1006 5.13747C14.1476 4.97179 13.2505 5.63877 13.1346 6.59906L12.8533 8.93005C12.6049 8.90816 12.3523 8.89692 12.0963 8.89692C11.7448 8.89692 11.3997 8.91812 11.063 8.95896L10.7779 6.59904ZM18.6626 14.5035C18.3283 17.0742 15.516 19.0811 12.0963 19.0811C8.93424 19.0811 6.2916 17.3653 5.64694 15.0745C6.76216 16.9579 9.19198 18.2636 12.0099 18.2636C15.1047 18.2636 17.7313 16.6888 18.6626 14.5035ZM13.4364 12.9864C13.4364 13.3749 13.7139 13.6899 14.0561 13.6899C14.3984 13.6899 14.6759 13.3749 14.6759 12.9864C14.6759 12.5978 14.3984 12.2828 14.0561 12.2828C13.7139 12.2828 13.4364 12.5978 13.4364 12.9864ZM10.17 13.6899C9.82772 13.6899 9.55024 13.3749 9.55024 12.9864C9.55024 12.5978 9.82772 12.2828 10.17 12.2828C10.5123 12.2828 10.7898 12.5978 10.7898 12.9864C10.7898 13.3749 10.5123 13.6899 10.17 13.6899Z" fill="black"/>
</svg>
