<svg width="137" height="25" viewBox="0 0 137 25" fill="none" xmlns="http://www.w3.org/2000/svg">
<mask id="mask0_4012_255" style="mask-type:luminance" maskUnits="userSpaceOnUse" x="2" y="1" width="134" height="23">
<path d="M135.478 1.05835H2.71094V23.8007H135.478V1.05835Z" fill="white"/>
</mask>
<g mask="url(#mask0_4012_255)">
<path d="M107.128 10.6032V14.4958H95.0272V19.6148H107.551V23.8007H90.8261C90.8526 19.4282 90.8527 15.0557 90.8527 10.6032H107.128ZM17.0842 1.11167C17.3219 1.11167 17.4541 1.165 17.5597 1.40495C20.8095 8.76356 24.0858 16.1222 27.3356 23.4541C27.3621 23.5341 27.3885 23.6141 27.4413 23.7474H25.7768C24.9313 23.7474 24.1122 23.7208 23.2667 23.7474C22.9497 23.7474 22.7912 23.6674 22.659 23.3475C20.7303 18.895 18.8015 14.4158 16.8728 9.96334C16.2915 8.63026 15.7102 7.27051 15.1025 5.85745C15.0233 6.04407 14.9704 6.15073 14.8912 6.28404C12.4076 11.963 9.95039 17.6419 7.4932 23.3208C7.36109 23.6141 7.22899 23.7208 6.88551 23.7208C5.76524 23.6994 4.66188 23.7122 3.54838 23.6909L2.71094 23.6674L2.94874 23.2675C6.17213 16.0155 9.39554 8.76356 12.6189 1.5116C12.751 1.21832 12.8831 1.11167 13.2266 1.11167C14.5213 1.13834 15.8159 1.13834 17.0842 1.11167ZM36.6887 1.19166C36.9529 1.19166 37.0852 1.27164 37.2171 1.48494C39.3837 4.4977 41.5503 7.48382 43.7168 10.4966C43.7962 10.6032 43.8753 10.7365 44.0076 10.8698C44.1133 10.7365 44.1924 10.6299 44.2718 10.5232C46.4384 7.51045 48.6049 4.52437 50.7715 1.5116C50.9563 1.27164 51.1148 1.19166 51.4056 1.19166C52.7267 1.21832 54.074 1.19166 55.3951 1.19166H55.8178V23.7474H51.6432V7.53712C51.617 7.51045 51.5904 7.51045 51.5641 7.48382C51.4847 7.59045 51.4056 7.69709 51.3262 7.80373C49.0805 10.8165 46.8345 13.8293 44.5889 16.842C44.1924 17.3753 43.6111 17.3753 43.2412 16.8154C41.0747 13.8026 38.8818 10.8165 36.7153 7.80373C36.6359 7.69709 36.5567 7.56379 36.4511 7.45715C36.4245 7.48381 36.3982 7.48381 36.3717 7.51045V23.7474H32.1708V1.21832C32.2765 1.21832 32.4084 1.19166 32.5141 1.19166H36.6887ZM126.416 1.05835C127.71 1.05835 128.952 1.32497 130.115 1.88486C132.783 3.13795 134.395 5.85745 134.236 8.8702C134.184 9.83004 134.052 10.7632 133.708 11.643C132.862 13.776 131.251 15.0024 129.111 15.589C128.952 15.6156 128.82 15.6689 128.609 15.7223C128.82 15.9622 128.979 16.1755 129.163 16.3621C131.171 18.6284 133.153 20.8946 135.161 23.1875C135.267 23.3208 135.346 23.5075 135.478 23.7208H130.67C130.485 23.7208 130.273 23.6141 130.141 23.4808C128.133 21.1612 126.125 18.8683 124.143 16.5221C123.906 16.2555 123.668 16.1488 123.324 16.1488C122.162 16.1755 120.973 16.1488 119.784 16.1488V23.6941C118.331 23.6674 116.957 23.6674 115.53 23.6674V12.2562H116.006C119.308 12.2562 122.611 12.2829 125.94 12.2829C126.521 12.2829 127.129 12.2296 127.684 12.0696C129.296 11.5897 130.194 10.0433 130.009 8.15034C129.85 6.55065 128.609 5.2709 126.971 5.08426C126.696 5.04159 126.404 5.03307 126.123 5.03137L115.557 5.03093V1.08501C115.636 1.08501 115.741 1.05835 115.821 1.05835H126.416ZM74.7884 1.05835C76.1358 1.05835 77.4568 1.29831 78.6988 1.8582C80.8388 2.84468 81.9485 4.55104 82.1599 6.89726C82.3712 9.21681 81.4995 10.9231 79.3592 11.963C79.412 12.0163 79.4649 12.043 79.4914 12.0696C81.8165 12.8961 83.0053 15.5623 82.8734 17.4553C82.7149 20.0681 81.5786 21.9611 79.1215 22.9209C78.408 23.1875 77.6419 23.4008 76.9021 23.5075C76.0829 23.6408 75.2374 23.6941 74.4185 23.6941H63.8762V10.2833H64.3518C67.9188 10.23 71.4856 10.2033 75.0261 10.1233C75.5282 10.0966 76.0566 9.99001 76.5322 9.80337C77.8796 9.29679 78.3817 7.9637 77.7476 6.65729C77.272 5.67082 76.4 5.1909 75.3697 5.00426C75.0261 4.95095 74.6562 4.92429 74.3128 4.92429C70.9837 4.89762 67.6809 4.89762 64.3518 4.87095H63.8762V1.08501C63.9819 1.08501 64.0613 1.05835 64.167 1.05835H74.7884ZM74.4977 13.9093H68.3944C68.2622 13.9093 68.1565 13.9359 68.0245 13.9359V19.6948C70.4287 19.6948 72.7538 19.7215 75.1055 19.6948C75.8981 19.6948 76.6379 19.4815 77.3512 19.1083C77.959 18.7883 78.408 18.3351 78.5931 17.6686C78.8836 16.6554 78.5137 15.6689 77.5891 14.9491C76.6908 14.2559 75.6339 13.9093 74.4977 13.9093ZM107.577 1.19166V5.2709H90.8527V1.19166H107.577Z" fill="#F9F9FA"/>
</g>
</svg>
