<svg width="145" height="25" viewBox="0 0 145 25" fill="none" xmlns="http://www.w3.org/2000/svg">
<g clip-path="url(#clip0_4012_262)">
<path d="M2.96038 7.89419C2.96038 8.4134 3.19314 8.62097 3.73581 8.62097H4.09774C5.41605 8.62097 6.03651 8.02409 6.03651 6.44063C6.03651 5.01294 5.23508 4.49397 3.83918 4.49397H2.96038V7.89419ZM3.8394 4.26025C5.20952 4.26025 5.72663 3.58549 5.72663 2.28771C5.72663 0.860035 5.10615 0.548653 3.86543 0.548653H2.93437V4.26049L3.8394 4.26025ZM0.142578 8.64685L0.788839 8.56897C1.4869 8.46518 1.56427 8.25755 1.56427 7.7384V1.45713C1.56427 0.912044 1.48667 0.704457 0.788839 0.626556L0.142578 0.548653V0.341064H3.99436C5.59704 0.341064 7.22567 0.808251 7.22567 2.3136C7.22567 3.50757 6.13988 4.15646 4.69219 4.33816V4.39016C6.42424 4.49397 7.6134 5.09106 7.6134 6.46675C7.6134 8.04999 6.2433 8.85471 4.12352 8.85471H0.142578V8.64685Z" fill="#F9F9FA"/>
<path d="M14.3872 4.57187C14.7491 4.59775 15.0334 4.59775 15.3435 4.59775C16.7136 4.59775 17.4117 4.02678 17.4117 2.59909C17.4117 1.01584 16.6879 0.548653 15.2661 0.548653H14.3872V4.57187ZM18.4459 8.85471C17.6705 8.85471 17.5669 8.67297 17.2827 8.12787L15.6021 4.80557H15.3177C14.9817 4.80557 14.6457 4.80557 14.3872 4.77968V7.71252C14.3872 8.25755 14.4648 8.46518 15.1626 8.54307L15.8088 8.62097V8.85471H11.5693V8.64685L12.2156 8.56897C12.9137 8.46518 12.9911 8.25755 12.9911 7.7384V1.45713C12.9911 0.912044 12.9134 0.704457 12.2156 0.626556L11.5693 0.548653V0.341064H15.266C17.4892 0.341064 18.9111 0.964057 18.9111 2.57321C18.9111 3.79307 17.8509 4.41606 16.8428 4.59775C17.0684 4.85744 17.2595 5.14532 17.4115 5.45424L18.5231 7.50466C18.9108 8.23144 19.066 8.43907 19.6088 8.56897L20.0484 8.67275V8.85443L18.4459 8.85471Z" fill="#F9F9FA"/>
<path d="M26.9756 4.33838C27.7771 4.33838 28.0356 3.7933 28.4491 2.46965H28.6559V6.46697H28.4491C28.0095 5.03928 27.7771 4.57209 26.9756 4.57209H26.0708V7.89419C26.0708 8.4134 26.3036 8.62097 26.8461 8.62097H27.6476C29.0954 8.62097 29.4573 8.07587 30.2585 5.86965H30.517L30.3878 8.85443H23.2529V8.64685L23.8993 8.56897C24.5973 8.46518 24.6747 8.25755 24.6747 7.7384V1.45714C24.6747 0.912044 24.597 0.704457 23.8993 0.626556L23.2529 0.548653V0.341064H30.0001L30.1293 3.06652H29.8708C29.1212 1.14575 28.785 0.574772 27.5443 0.574772H26.045V4.36428H26.9756V4.33838Z" fill="#F9F9FA"/>
<path d="M35.2745 1.89843C34.9126 0.938165 34.6541 0.678566 34.1372 0.600663L33.6719 0.548653V0.341064C34.3957 0.366956 35.1195 0.366956 35.8174 0.366956C36.5413 0.366956 37.2393 0.366956 37.9629 0.341064V0.548653L37.239 0.626556C36.567 0.704457 36.4894 1.06785 36.6962 1.61294L38.7902 7.42721L40.6256 2.44375C41.0909 1.22388 40.9875 0.808481 40.1345 0.652901L39.5141 0.549107V0.341064C40.0826 0.366956 40.6256 0.366956 41.1684 0.366956C41.7371 0.366956 42.28 0.366956 42.8488 0.341064V0.52276L42.3834 0.652447C41.6595 0.808251 41.401 1.19754 40.8841 2.52119L39.0487 7.42699L38.5576 8.88081H37.9631L35.2745 1.89843Z" fill="#F9F9FA"/>
<path d="M45.8216 5.81838H48.8979L47.3727 1.74336L45.8216 5.81838ZM50.449 8.82955H48.4326V8.62192L49.1566 8.54403C49.8284 8.46613 49.8025 8.10272 49.5958 7.55767L49.0271 6.07817H45.744L45.4855 6.75295C45.0201 7.99892 45.0201 8.36213 45.8474 8.51792L46.4679 8.6217V8.85544H43.3916V8.6737L43.8052 8.56992C44.4772 8.38823 44.7101 8.05072 45.2271 6.70116L47.1399 1.74336L47.631 0.289795H48.2775L50.9919 7.29782C51.3539 8.25807 51.5091 8.5177 52.0258 8.5956L52.4396 8.6476V8.85517C51.7416 8.85517 51.1471 8.82955 50.449 8.82955Z" fill="#F9F9FA"/>
<path d="M56.731 1.35334V7.03774C56.731 8.12787 56.9639 8.43928 57.6359 8.54307L58.1526 8.62097V8.85471H55.0244V8.64685L55.5419 8.56897C56.2398 8.46518 56.4466 8.15354 56.4466 7.06363V1.45713C56.4466 0.912044 56.3688 0.704457 55.6713 0.626556L55.025 0.548653V0.341064H57.7391L62.2889 7.06384V2.13191C62.2889 1.04173 62.0566 0.730351 61.3842 0.626556L60.8673 0.548653V0.341064C61.4359 0.341064 61.8754 0.366956 62.444 0.366956C63.0126 0.366956 63.4521 0.341064 63.9951 0.341064V0.548653L63.4782 0.626556C62.8058 0.730351 62.5735 1.04196 62.5735 2.13191V8.85471H61.7977L56.731 1.35334Z" fill="#F9F9FA"/>
<path d="M82.7879 1.45714C82.7879 0.912044 82.7101 0.704457 82.0121 0.626556L81.3657 0.548653V0.341064C82.1155 0.341064 82.7362 0.366956 83.486 0.366956C84.2095 0.366956 84.8558 0.341064 85.6054 0.341064V0.548653L84.9591 0.626556C84.2612 0.730351 84.1839 0.937935 84.1839 1.45714V7.71252C84.1839 8.25755 84.2612 8.46518 84.9591 8.54307L85.6054 8.62097V8.85465H81.3657V8.64685L82.0121 8.56897C82.7101 8.46518 82.7873 8.25755 82.7873 7.7384V4.62388H78.8328V7.71272C78.8328 8.25782 78.91 8.4654 79.608 8.5433L80.2544 8.62119V8.85493H76.0146V8.64685L76.661 8.56897C77.3589 8.46518 77.4362 8.25755 77.4362 7.7384V1.45714C77.4362 0.912044 77.3589 0.704457 76.661 0.626556L76.0146 0.548653V0.341064C76.7644 0.341064 77.3851 0.366956 78.1343 0.366956C78.8839 0.366956 79.5046 0.341064 80.2544 0.341064V0.548653L79.608 0.626556C78.91 0.730351 78.8328 0.937935 78.8328 1.45714V4.36428H82.7879V1.45714Z" fill="#F9F9FA"/>
<path d="M92.7407 8.85499C94.6279 8.85499 95.4031 6.93424 95.4031 4.59828C95.4031 2.26236 94.654 0.341364 92.7407 0.341364C90.8016 0.341364 90.052 2.26212 90.052 4.59806C90.052 6.93402 90.7762 8.85499 92.7407 8.85499ZM92.7407 9.03646C90.4144 9.03646 88.501 7.27149 88.501 4.59806C88.501 1.89872 90.3882 0.159668 92.7407 0.159668C95.067 0.159668 96.9542 1.92462 96.9542 4.59806C96.9542 7.27149 95.067 9.03646 92.7407 9.03646Z" fill="#F9F9FA"/>
<path d="M100.884 1.8733C100.574 0.964817 100.341 0.679323 99.7726 0.601421L99.333 0.549411V0.341823C100.057 0.367714 100.781 0.367714 101.479 0.367714C102.203 0.367714 102.901 0.367714 103.624 0.341823V0.549411L102.9 0.627313C102.202 0.705216 102.125 1.12039 102.28 1.6137L103.96 7.16818L105.899 0.290039H106.546L108.795 7.16839L110.191 2.44428C110.604 1.06861 110.32 0.78312 109.518 0.627313L108.976 0.523518V0.31593C109.545 0.341823 110.087 0.341823 110.656 0.341823C111.199 0.341823 111.767 0.341823 112.31 0.31593V0.497627L111.871 0.601421C111.121 0.757227 110.837 1.1724 110.449 2.49628L109.001 7.29806L108.588 8.85542H107.941L105.641 2.02911L104.142 7.27218L103.728 8.85542H103.108L100.884 1.8733Z" fill="#F9F9FA"/>
<path d="M115.749 5.81862H118.825L117.3 1.74361L115.749 5.81862ZM120.35 8.8298H118.334V8.62217L119.058 8.54427C119.73 8.46637 119.704 8.10296 119.497 7.55792L118.928 6.07842H115.645L115.387 6.7532C114.921 7.99917 114.921 8.36237 115.749 8.51817L116.369 8.62195V8.85568H113.293V8.67395L113.706 8.57017C114.378 8.38848 114.611 8.05096 115.129 6.7014L117.041 1.74361L117.532 0.290039H118.179L120.893 7.29806C121.255 8.25831 121.41 8.51795 121.927 8.59584L122.341 8.64784V8.85542C121.669 8.85542 121.074 8.8298 120.35 8.8298Z" fill="#F9F9FA"/>
<path d="M127.717 4.57187C128.079 4.59775 128.363 4.59775 128.673 4.59775C130.043 4.59775 130.742 4.02678 130.742 2.59909C130.742 1.01584 130.018 0.548653 128.596 0.548653H127.717V4.57187ZM131.776 8.85471C131 8.85471 130.897 8.67297 130.612 8.12787L128.932 4.80557H128.648C128.312 4.80557 127.976 4.80557 127.718 4.77968V7.71252C127.718 8.25755 127.795 8.46518 128.493 8.54307L129.139 8.62097V8.85471H124.899V8.64685L125.546 8.56897C126.244 8.46518 126.321 8.25755 126.321 7.7384V1.45713C126.321 0.912044 126.243 0.704457 125.546 0.626556L124.899 0.548653V0.341064H128.57C130.793 0.341064 132.215 0.964057 132.215 2.57321C132.215 3.79307 131.155 4.41606 130.147 4.59775C130.373 4.85744 130.563 5.14532 130.716 5.45424L131.827 7.50466C132.215 8.23144 132.37 8.43907 132.913 8.56897L133.353 8.67275V8.85443L131.776 8.85471Z" fill="#F9F9FA"/>
<path d="M140.281 8.62097C142.194 8.62097 143.253 7.50488 143.253 4.59775C143.253 1.66472 142.142 0.548653 140.281 0.548653H139.195V7.8683C139.195 8.3875 139.428 8.59507 139.97 8.59507H140.281V8.62097ZM136.403 8.64685L137.049 8.56897C137.748 8.46518 137.825 8.25755 137.825 7.7384V1.45714C137.825 0.912044 137.747 0.704457 137.049 0.626556L136.403 0.548653V0.341064H140.307C142.659 0.341064 144.857 1.53505 144.857 4.59775C144.857 7.66046 142.685 8.85443 140.307 8.85443H136.429V8.64685H136.403Z" fill="#F9F9FA"/>
<path d="M96.9814 24.714C96.9814 24.2209 97.0071 19.9381 96.9814 19.0813H98.3774C98.7833 19.0693 99.1891 19.0866 99.5923 19.1334C100.342 19.2372 101.919 19.9381 101.919 21.7809C101.919 24.1947 100.057 24.6102 99.4372 24.6619C98.946 24.714 98.015 24.714 97.6533 24.714H96.9814ZM97.6278 24.3765C97.7828 24.4284 99.1788 24.5062 99.7473 24.2727C100.265 24.0652 101.221 23.598 101.298 22.0406C101.328 21.4524 101.154 20.8722 100.805 20.3988C100.456 19.9255 99.9547 19.5883 99.3855 19.4447C98.8035 19.3622 98.2153 19.3274 97.6278 19.3409C97.6016 20.9502 97.6278 22.7671 97.6278 24.3765Z" fill="#F9F9FA"/>
<path d="M106.081 24.7144C106.081 24.2213 106.107 19.9386 106.081 19.0818H106.701V24.7144H106.081Z" fill="#F9F9FA"/>
<path d="M115.387 22.2478H116.033V24.3244C115.373 24.5875 114.674 24.7366 113.965 24.7657C112.517 24.7657 110.992 23.8313 110.992 21.9625C110.992 20.3792 112.104 19.0036 113.887 19.0036C114.643 18.9713 115.386 19.2105 115.982 19.6783L115.775 20.2233C115.258 19.4188 114.663 19.2891 114.017 19.2891C112.44 19.2891 111.691 20.7167 111.691 21.9883C111.691 23.5976 112.75 24.5839 114.146 24.5839C114.57 24.557 114.984 24.4422 115.361 24.2464V22.2478H115.387Z" fill="#F9F9FA"/>
<path d="M120.531 24.7144C120.531 24.2213 120.557 19.9386 120.531 19.0818H121.152V24.7144H120.531Z" fill="#F9F9FA"/>
<path d="M127.201 24.7144V19.3156H125.236L125.288 19.0818H129.89V19.3156H127.821V24.7144H127.201Z" fill="#F9F9FA"/>
<path d="M136.688 24.7143C136.507 24.1693 136.197 23.4167 135.939 22.7418H133.716L132.888 24.7143H132.655L135.008 19.0042H135.086C135.086 19.0042 135.214 19.3674 135.292 19.6009C136.016 21.4178 137.076 23.9355 137.412 24.7143H136.688ZM135.861 22.4822C135.421 21.3661 134.853 19.9646 134.853 19.9646V19.8608L133.819 22.4822H135.861Z" fill="#F9F9FA"/>
<path d="M141.496 24.7144C141.496 24.2213 141.522 19.9386 141.496 19.0818H142.142V24.4808C142.142 24.4808 144.443 24.5066 144.857 24.4287L144.754 24.7144H141.496Z" fill="#F9F9FA"/>
</g>
<defs>
<clipPath id="clip0_4012_262">
<rect width="145" height="25" fill="white"/>
</clipPath>
</defs>
</svg>
