<svg width="153" height="25" viewBox="0 0 153 25" fill="none" xmlns="http://www.w3.org/2000/svg">
<mask id="mask0_4012_283" style="mask-type:luminance" maskUnits="userSpaceOnUse" x="1" y="1" width="151" height="23">
<path d="M151.285 1.31641H1.71484V23.6453H151.285V1.31641Z" fill="white"/>
</mask>
<g mask="url(#mask0_4012_283)">
<path fill-rule="evenodd" clip-rule="evenodd" d="M9.32034 15.937C9.60289 16.5522 9.96748 17.1079 10.4027 17.5949C9.44308 18.1088 8.43742 18.3379 7.34111 18.3379C4.08084 18.3379 1.71484 16.1997 1.71484 12.7871C1.71484 9.35028 4.20158 7.2121 7.34111 7.2121C8.45833 7.2121 9.33941 7.45351 10.2271 7.92573C9.81316 8.43157 9.47169 9.00551 9.21226 9.63732C8.67669 9.42387 8.1255 9.32671 7.5578 9.32671C5.62612 9.32671 4.12891 10.5524 4.12891 12.7871C4.12891 14.9018 5.57805 16.2476 7.65488 16.2476C8.24991 16.2476 8.79925 16.1404 9.32034 15.937ZM15.8772 7.2121C19.0884 7.2121 21.4064 9.47117 21.4064 12.7871C21.4064 16.0796 19.0884 18.3379 15.8772 18.3379C12.6905 18.3379 10.3726 16.0796 10.3726 12.7871C10.3726 9.47117 12.6905 7.2121 15.8772 7.2121ZM15.8772 9.25457C14.0907 9.25457 12.7867 10.6247 12.7867 12.7871C12.7867 14.9263 14.0907 16.2955 15.8772 16.2955C17.7128 16.2955 18.9924 14.9263 18.9924 12.7871C18.9924 10.6247 17.7128 9.25457 15.8772 9.25457ZM22.928 18.0977V7.45216H25.3175V18.0977H22.928ZM22.6134 4.18401C22.6134 3.36719 23.3143 2.71837 24.1106 2.71837C24.9078 2.71837 25.6077 3.36719 25.6077 4.18401C25.6077 5.02528 24.9078 5.69855 24.1106 5.69855C23.3143 5.69855 22.6134 5.02528 22.6134 4.18401ZM27.4029 8.12548C28.9002 7.5488 30.7358 7.21207 32.3046 7.21207C35.0332 7.21207 36.7717 8.24546 36.7717 11.2492V18.0978H34.4057V11.4658C34.4057 9.92785 33.4397 9.37455 32.1114 9.37455C31.2662 9.37455 30.422 9.49469 29.7935 9.68698V18.0978H27.4029V8.12548ZM38.7733 1.75708H41.163V7.74101C41.67 7.4766 42.6602 7.21216 43.6015 7.21216C46.6923 7.21216 49.0101 9.18235 49.0101 12.5949C49.0101 16.031 46.7167 18.3378 42.7572 18.3378C41.2121 18.3378 39.86 18.0256 38.7733 17.6412V1.75708ZM41.163 16.0797C41.622 16.2232 42.2258 16.2954 42.8289 16.2954C45.0262 16.2954 46.5961 15.0942 46.5961 12.6428C46.5961 10.5758 45.1232 9.35035 43.3124 9.35035C42.3708 9.35035 41.6463 9.59121 41.163 9.85562V16.0797ZM55.915 10.9605C55.915 9.80692 55.0452 9.27901 53.8627 9.27901C52.6312 9.27901 51.6652 9.6391 50.7721 10.1436V8.07669C51.7134 7.54878 52.9205 7.21205 54.2491 7.21205C56.5905 7.21205 58.2566 8.1733 58.2566 10.8403V17.8812C57.2427 18.1456 55.7944 18.3143 54.5873 18.3143C51.8105 18.3143 49.782 17.4732 49.782 15.0697C49.782 12.9073 51.6408 11.8503 54.7314 11.8503H55.915V10.9605ZM55.915 13.4361H54.9011C53.2343 13.4361 52.1478 13.9161 52.1478 14.9976C52.1478 16.1031 53.1626 16.5355 54.6108 16.5355C54.9737 16.5355 55.4806 16.4877 55.915 16.4154V13.4361ZM59.9951 15.2141C60.9852 15.9588 62.1677 16.4155 63.2542 16.4155C64.317 16.4155 65.0173 16.0553 65.0173 15.2141C65.0173 14.3486 64.3896 14.0363 63.013 13.6762C60.792 13.1717 59.8498 12.2827 59.8498 10.4323C59.8498 8.26894 61.4922 7.21219 63.665 7.21219C64.8721 7.21219 65.8378 7.4766 66.7312 8.02901V10.2158C65.7899 9.54337 64.8721 9.13451 63.7376 9.13451C62.6993 9.13451 62.1444 9.63907 62.1444 10.3359C62.1444 11.0326 62.6022 11.3935 63.8338 11.7294C66.2731 12.2582 67.3352 13.1717 67.3352 15.0942C67.3352 17.3287 65.6211 18.3378 63.3033 18.3378C62.0473 18.3378 60.792 18.0021 59.9951 17.4732V15.2141ZM70.6066 13.3161V13.3639C70.7519 15.2619 72.3933 16.2953 74.0592 16.2953C75.5319 16.2953 76.5947 15.9588 77.6565 15.2619V17.3532C76.6908 18.0256 75.2663 18.3378 73.8904 18.3378C70.5587 18.3378 68.2888 16.2232 68.2888 12.8593C68.2888 9.47121 70.5096 7.21216 73.4561 7.21216C76.5702 7.21216 78.0431 9.2068 78.0431 12.1139V13.3161H70.6066ZM75.7977 11.7781C75.7495 10.1193 74.9288 9.2068 73.3835 9.2068C72.0069 9.2068 70.9932 10.1681 70.6793 11.7781H75.7977Z" fill="#F9F9FA"/>
<path d="M87.3466 1.70232C87.3466 1.48865 87.1724 1.31543 86.9579 1.31543C86.7433 1.31543 86.5693 1.48865 86.5693 1.70232V23.2574C86.5693 23.4711 86.7433 23.6442 86.9579 23.6442C87.1724 23.6442 87.3466 23.4711 87.3466 23.2574V1.70232Z" fill="#F9F9FA"/>
<path d="M100.754 18.1182H99.4225L95.3018 7.4812H96.5077L100.106 17.0079L103.705 7.4812H104.874L100.754 18.1182ZM111.421 14.2681H105.483V14.3039C105.483 16.22 106.868 17.3482 108.398 17.3482C109.514 17.3482 110.287 17.0616 111.079 16.4707V17.5451C110.378 18.0645 109.37 18.2972 108.398 18.2972C106.131 18.2972 104.403 16.7572 104.403 14.2143C104.403 11.8685 106.023 10.1315 108.128 10.1315C110.107 10.1315 111.421 11.3133 111.421 13.5338V14.2681ZM105.555 13.3727H110.341C110.269 11.7432 109.388 11.0806 108.074 11.0806C106.851 11.0806 105.861 11.9043 105.555 13.3727ZM112.623 18.1182V10.7225C113.667 10.3464 114.854 10.1315 115.916 10.1315C117.895 10.1315 119.1 10.9015 119.1 12.8534V18.1182H118.022V13.0683C118.022 11.4746 116.888 11.1343 115.826 11.1343C114.998 11.1343 114.261 11.2775 113.703 11.4208V18.1182H112.623ZM119.763 11.2238V10.3105H120.969V8.41238H122.049V10.3105H124.261V11.2238H122.049V15.9871C122.049 16.99 122.444 17.3839 123.182 17.3839C123.686 17.3839 124.1 17.2228 124.639 16.9542V17.9032C124.172 18.136 123.632 18.2972 122.948 18.2972C121.815 18.2972 120.969 17.7063 120.969 16.0946V11.2238H119.763ZM131.78 10.3105V18.0287C130.826 18.2077 129.854 18.2972 129.045 18.2972C126.778 18.2972 125.482 17.5272 125.482 15.5753V10.3105H126.562V15.5216C126.562 16.99 127.732 17.366 128.973 17.366C129.512 17.366 130.125 17.3302 130.7 17.2586V10.3105H131.78ZM134.691 11.5999V18.1182H133.613V11.0269C134.44 10.5075 135.447 10.1852 136.527 10.1852C136.959 10.1852 137.391 10.2389 137.841 10.3464V11.4029C137.372 11.2417 136.815 11.206 136.455 11.206C135.681 11.206 135.105 11.3671 134.691 11.5999ZM144.837 14.2681H138.899V14.3039C138.899 16.22 140.284 17.3482 141.814 17.3482C142.93 17.3482 143.703 17.0616 144.494 16.4707V17.5451C143.793 18.0645 142.786 18.2972 141.814 18.2972C139.547 18.2972 137.819 16.7572 137.819 14.2143C137.819 11.8685 139.439 10.1315 141.544 10.1315C143.523 10.1315 144.837 11.3133 144.837 13.5338V14.2681ZM138.971 13.3727H143.757C143.685 11.7432 142.803 11.0806 141.49 11.0806C140.266 11.0806 139.276 11.9043 138.971 13.3727ZM145.661 17.6705V16.4528C146.327 17.0437 147.011 17.3839 147.875 17.3839C148.864 17.3839 149.494 17.0079 149.494 16.1304C149.494 15.1992 148.81 14.9486 147.568 14.5367C146.183 14.0711 145.589 13.498 145.589 12.2445C145.589 10.8656 146.633 10.1315 148.054 10.1315C148.828 10.1315 149.584 10.2927 150.195 10.7225V11.8865C149.584 11.385 148.954 11.0447 148.054 11.0447C147.191 11.0447 146.633 11.5104 146.633 12.2445C146.633 12.9608 147.064 13.3369 148.27 13.713C149.638 14.1248 150.555 14.6442 150.555 16.0588C150.555 17.5988 149.35 18.2972 147.875 18.2972C146.992 18.2972 146.147 18.0465 145.661 17.6705Z" fill="#F9F9FA"/>
<path d="M100.754 18.1182H99.4225L95.3018 7.4812H96.5077L100.106 17.0079L103.705 7.4812H104.874L100.754 18.1182ZM111.421 14.2681H105.483V14.3039C105.483 16.22 106.868 17.3482 108.398 17.3482C109.514 17.3482 110.287 17.0616 111.079 16.4707V17.5451C110.378 18.0645 109.37 18.2972 108.398 18.2972C106.131 18.2972 104.403 16.7572 104.403 14.2143C104.403 11.8685 106.023 10.1315 108.128 10.1315C110.107 10.1315 111.421 11.3133 111.421 13.5338V14.2681ZM105.555 13.3727H110.341C110.269 11.7432 109.388 11.0806 108.074 11.0806C106.851 11.0806 105.861 11.9043 105.555 13.3727ZM112.623 18.1182V10.7225C113.667 10.3464 114.854 10.1315 115.916 10.1315C117.895 10.1315 119.1 10.9015 119.1 12.8534V18.1182H118.022V13.0683C118.022 11.4746 116.888 11.1343 115.826 11.1343C114.998 11.1343 114.261 11.2775 113.703 11.4208V18.1182H112.623ZM119.763 11.2238V10.3105H120.969V8.41238H122.049V10.3105H124.261V11.2238H122.049V15.9871C122.049 16.99 122.444 17.3839 123.182 17.3839C123.686 17.3839 124.1 17.2228 124.639 16.9542V17.9032C124.172 18.136 123.632 18.2972 122.948 18.2972C121.815 18.2972 120.969 17.7063 120.969 16.0946V11.2238H119.763ZM131.78 10.3105V18.0287C130.826 18.2077 129.854 18.2972 129.045 18.2972C126.778 18.2972 125.482 17.5272 125.482 15.5753V10.3105H126.562V15.5216C126.562 16.99 127.732 17.366 128.973 17.366C129.512 17.366 130.125 17.3302 130.7 17.2586V10.3105H131.78ZM134.691 11.5999V18.1182H133.613V11.0269C134.44 10.5075 135.447 10.1852 136.527 10.1852C136.959 10.1852 137.391 10.2389 137.841 10.3464V11.4029C137.372 11.2417 136.815 11.206 136.455 11.206C135.681 11.206 135.105 11.3671 134.691 11.5999ZM144.837 14.2681H138.899V14.3039C138.899 16.22 140.284 17.3482 141.814 17.3482C142.93 17.3482 143.703 17.0616 144.494 16.4707V17.5451C143.793 18.0645 142.786 18.2972 141.814 18.2972C139.547 18.2972 137.819 16.7572 137.819 14.2143C137.819 11.8685 139.439 10.1315 141.544 10.1315C143.523 10.1315 144.837 11.3133 144.837 13.5338V14.2681ZM138.971 13.3727H143.757C143.685 11.7432 142.803 11.0806 141.49 11.0806C140.266 11.0806 139.276 11.9043 138.971 13.3727ZM145.661 17.6705V16.4528C146.327 17.0437 147.011 17.3839 147.875 17.3839C148.864 17.3839 149.494 17.0079 149.494 16.1304C149.494 15.1992 148.81 14.9486 147.568 14.5367C146.183 14.0711 145.589 13.498 145.589 12.2445C145.589 10.8656 146.633 10.1315 148.054 10.1315C148.828 10.1315 149.584 10.2927 150.195 10.7225V11.8865C149.584 11.385 148.954 11.0447 148.054 11.0447C147.191 11.0447 146.633 11.5104 146.633 12.2445C146.633 12.9608 147.064 13.3369 148.27 13.713C149.638 14.1248 150.555 14.6442 150.555 16.0588C150.555 17.5988 149.35 18.2972 147.875 18.2972C146.992 18.2972 146.147 18.0465 145.661 17.6705Z" fill="#F9F9FA"/>
</g>
</svg>
