<svg width="245" height="25" viewBox="0 0 245 25" fill="none" xmlns="http://www.w3.org/2000/svg">
<mask id="mask0_4012_292" style="mask-type:luminance" maskUnits="userSpaceOnUse" x="0" y="1" width="244" height="23">
<path d="M243.078 1.10522H0.321289V23.8476H243.078V1.10522Z" fill="white"/>
</mask>
<g mask="url(#mask0_4012_292)">
<path d="M2.74033 14.0361V22.5469H0.805664V2.05957H13.0732V3.81439H2.74033V14.0361Z" fill="#F9F9FA"/>
<path d="M2.95933 22.7655H0.584961V1.8396H13.2922V4.03309H2.95933V22.7655ZM1.02466 22.3268H2.51963V3.5944H12.8085V2.27831H1.02466V22.3268Z" fill="#F9F9FA"/>
<path d="M15.2267 22.5475H13.248L21.91 1.57764H22.042L30.7039 22.5475H28.6815L27.2744 18.994H16.6777L15.2267 22.5475ZM21.998 5.87691L17.3812 17.2392H26.5708L21.998 5.87691Z" fill="#F9F9FA"/>
<path d="M31.056 22.7663H28.5498L27.1426 19.2128H16.8537L15.4028 22.7663H12.9404L21.7784 1.35767H22.2181L31.056 22.7663ZM28.8574 22.3276H30.3965L21.9982 1.97185L13.6 22.3276H15.0949L16.5459 18.7741H27.4504L28.8574 22.3276ZM26.8788 17.4579H17.0736L21.9982 5.30597L26.8788 17.4579ZM17.7331 17.0193H26.2632L22.0421 6.49047L17.7331 17.0193Z" fill="#F9F9FA"/>
<path d="M15.0079 22.5475H13.0293L21.6474 1.57764H21.7792L30.4413 22.5475H28.4626L27.0556 18.994H16.4589L15.0079 22.5475ZM21.7792 5.87691L17.1624 17.2392H26.3521L21.7792 5.87691Z" fill="#F9F9FA"/>
<path d="M30.8363 22.7663H28.3301L26.9231 19.2128H16.5902L15.1391 22.7663H12.6768L21.5147 1.35767H21.9544L30.8363 22.7663ZM28.5937 22.3276H30.1328L21.7346 1.97185L13.3803 22.3276H14.8314L16.2823 18.7741H27.1868L28.5937 22.3276ZM26.6592 17.4579H16.81L21.7786 5.30597L26.6592 17.4579ZM17.4696 17.0193H25.9997L21.7786 6.49047L17.4696 17.0193Z" fill="#F9F9FA"/>
<path d="M34.0898 2.05957H40.7733C44.6427 2.05957 46.5333 4.29695 46.5333 7.10461C46.5333 9.07878 45.5659 10.4388 43.8951 11.1845C46.4893 11.8864 48.1601 13.8167 48.1601 16.5805C48.1601 19.9146 46.0058 22.5469 41.5646 22.5469H34.0898V2.05957ZM40.993 10.5265C43.5872 10.5265 44.5987 9.12264 44.5987 7.10461C44.5987 5.2182 43.4995 3.7705 40.6854 3.7705H36.0245V10.5265H40.993ZM41.3889 20.7921C44.8186 20.7921 46.1814 18.9496 46.1814 16.5367C46.1814 14.0361 44.6427 12.1936 41.3009 12.1936H36.0245V20.7921H41.3889Z" fill="#F9F9FA"/>
<path d="M41.5658 22.7655H33.8711V1.8396H40.7745C45.1714 1.8396 46.7542 4.55954 46.7542 7.10401C46.7542 8.90268 45.9627 10.3065 44.5119 11.14C46.9741 11.9736 48.3812 13.9915 48.3812 16.58C48.3812 19.5631 46.6222 22.7655 41.5658 22.7655ZM34.3107 22.3268H41.5658C45.5231 22.3268 47.9413 20.1333 47.9413 16.58C47.9413 14.0354 46.4026 12.1052 43.8523 11.4033L43.2368 11.2278L43.8523 10.9646C45.4794 10.2188 46.3586 8.85879 46.3586 7.06012C46.3586 4.07696 44.248 2.23443 40.8185 2.23443H34.3107V22.3268ZM41.3901 21.0108H35.8058V11.9736H41.3021C44.4679 11.9736 46.4026 13.6845 46.4026 16.5361C46.4026 19.3876 44.5999 21.0108 41.3901 21.0108ZM36.2456 20.572H41.3461C44.2919 20.572 45.919 19.1244 45.919 16.5361C45.919 13.9039 44.248 12.4123 41.3021 12.4123H36.2456V20.572ZM40.9942 10.7452H35.8058V3.5944H40.6426C43.2808 3.5944 44.7758 4.86662 44.7758 7.14787C44.8198 9.47298 43.4567 10.7452 40.9942 10.7452ZM36.2456 10.3065H40.9942C43.2368 10.3065 44.3799 9.25362 44.3799 7.14787C44.3799 5.17371 43.0608 4.07696 40.6865 4.07696H36.2894V10.3065H36.2456Z" fill="#F9F9FA"/>
<path d="M34.0898 2.05957H40.7733C44.6427 2.05957 46.5333 4.29695 46.5333 7.10461C46.5333 9.07878 45.5659 10.4388 43.8951 11.1845C46.4893 11.8864 48.1601 13.8167 48.1601 16.5805C48.1601 19.9146 46.0058 22.5469 41.5646 22.5469H34.0898V2.05957ZM40.993 10.5265C43.5872 10.5265 44.5987 9.12264 44.5987 7.10461C44.5987 5.2182 43.4995 3.7705 40.6854 3.7705H36.0245V10.5265H40.993ZM41.3889 20.7921C44.8186 20.7921 46.1814 18.9496 46.1814 16.5367C46.1814 14.0361 44.6427 12.1936 41.3009 12.1936H36.0245V20.7921H41.3889Z" fill="#F9F9FA"/>
<path d="M41.5658 22.7655H33.8711V1.8396H40.7745C45.1714 1.8396 46.7542 4.55954 46.7542 7.10401C46.7542 8.90268 45.9627 10.3065 44.5119 11.14C46.9741 11.9736 48.3812 13.9915 48.3812 16.58C48.3812 19.5631 46.6222 22.7655 41.5658 22.7655ZM34.3107 22.3268H41.5658C45.5231 22.3268 47.9413 20.1333 47.9413 16.58C47.9413 14.0354 46.4026 12.1052 43.8523 11.4033L43.2368 11.2278L43.8523 10.9646C45.4794 10.2188 46.3586 8.85879 46.3586 7.06012C46.3586 4.07696 44.248 2.23443 40.8185 2.23443H34.3107V22.3268ZM41.3901 21.0108H35.8058V11.9736H41.3021C44.4679 11.9736 46.4026 13.6845 46.4026 16.5361C46.4026 19.3876 44.5999 21.0108 41.3901 21.0108ZM36.2456 20.572H41.3461C44.2919 20.572 45.919 19.1244 45.919 16.5361C45.919 13.9039 44.248 12.4123 41.3021 12.4123H36.2456V20.572ZM40.9942 10.7452H35.8058V3.5944H40.6426C43.2808 3.5944 44.7758 4.86662 44.7758 7.14787C44.8198 9.47298 43.4567 10.7452 40.9942 10.7452ZM36.2456 10.3065H40.9942C43.2368 10.3065 44.3799 9.25362 44.3799 7.14787C44.3799 5.17371 43.0608 4.07696 40.6865 4.07696H36.2894V10.3065H36.2456Z" fill="#F9F9FA"/>
<path d="M65.3968 22.5469H63.0222L58.9333 17.3263C58.4054 17.4141 57.8338 17.4579 57.2622 17.4579H54.756V22.5907H52.7773V2.05957H57.2622C62.8466 2.05957 65.7484 5.34981 65.7484 9.78069C65.7484 13.0709 64.1217 15.747 60.9556 16.8438L65.3968 22.5469ZM57.0863 15.7031C61.7471 15.7031 63.6378 13.2026 63.6378 9.78069C63.6378 6.35883 61.7471 3.81439 57.0863 3.81439H54.712V15.7031H57.0863Z" fill="#F9F9FA"/>
<path d="M65.8367 22.7655H62.8905L58.8015 17.545C58.3179 17.6328 57.8341 17.6328 57.2185 17.6328H54.9322V22.7655H52.5137V1.8396H57.2185C62.5829 1.8396 65.9246 4.86662 65.9246 9.78007C65.9246 13.2019 64.2096 15.7902 61.2638 16.9748L65.8367 22.7655ZM63.1105 22.3268H64.9132L60.5163 16.7554L60.8242 16.6677C63.77 15.6148 65.4848 13.1142 65.4848 9.78007C65.4848 5.17371 62.3192 2.27831 57.2185 2.27831H52.9536V22.3268H54.4486V17.1941H57.1745C57.8341 17.1941 58.3619 17.1502 58.8455 17.0625H58.9775L63.1105 22.3268ZM57.0868 15.9219H54.4923V3.5944H57.0868C61.4397 3.5944 63.858 5.7879 63.858 9.78007C63.902 13.7284 61.4837 15.9219 57.0868 15.9219ZM54.9322 15.4832H57.0868C62.3192 15.4832 63.4184 12.3684 63.4184 9.78007C63.4184 6.09498 61.1758 4.03309 57.0868 4.03309H54.9322V15.4832Z" fill="#F9F9FA"/>
<path d="M65.3968 22.5469H63.0222L58.9333 17.3263C58.4054 17.4141 57.8338 17.4579 57.2622 17.4579H54.756V22.5907H52.7773V2.05957H57.2622C62.8466 2.05957 65.7484 5.34981 65.7484 9.78069C65.7484 13.0709 64.1217 15.747 60.9556 16.8438L65.3968 22.5469ZM57.0863 15.7031C61.7471 15.7031 63.6378 13.2026 63.6378 9.78069C63.6378 6.35883 61.7471 3.81439 57.0863 3.81439H54.712V15.7031H57.0863Z" fill="#F9F9FA"/>
<path d="M65.8367 22.7655H62.8905L58.8015 17.545C58.3179 17.6328 57.8341 17.6328 57.2185 17.6328H54.9322V22.7655H52.5137V1.8396H57.2185C62.5829 1.8396 65.9246 4.86662 65.9246 9.78007C65.9246 13.2019 64.2096 15.7902 61.2638 16.9748L65.8367 22.7655ZM63.1105 22.3268H64.9132L60.5163 16.7554L60.8242 16.6677C63.77 15.6148 65.4848 13.1142 65.4848 9.78007C65.4848 5.17371 62.3192 2.27831 57.2185 2.27831H52.9536V22.3268H54.4486V17.1941H57.1745C57.8341 17.1941 58.3619 17.1502 58.8455 17.0625H58.9775L63.1105 22.3268ZM57.0868 15.9219H54.4923V3.5944H57.0868C61.4397 3.5944 63.858 5.7879 63.858 9.78007C63.902 13.7284 61.4837 15.9219 57.0868 15.9219ZM54.9322 15.4832H57.0868C62.3192 15.4832 63.4184 12.3684 63.4184 9.78007C63.4184 6.09498 61.1758 4.03309 57.0868 4.03309H54.9322V15.4832Z" fill="#F9F9FA"/>
<path d="M72.3878 2.05957H70.4092V22.5469H72.3878V2.05957Z" fill="#F9F9FA"/>
<path d="M72.6517 22.7655H70.2334V1.8396H72.6517V22.7655ZM70.629 22.3268H72.1681V2.27831H70.629V22.3268Z" fill="#F9F9FA"/>
<path d="M72.3878 2.05957H70.4092V22.5469H72.3878V2.05957Z" fill="#F9F9FA"/>
<path d="M72.6517 22.7655H70.2334V1.8396H72.6517V22.7655ZM70.629 22.3268H72.1681V2.27831H70.629V22.3268Z" fill="#F9F9FA"/>
<path d="M76.6094 12.2823C76.6094 6.18438 81.182 1.79736 86.9862 1.79736C90.4597 1.79736 93.1858 3.20121 95.0325 5.61404L93.5375 6.71079C91.9987 4.73665 89.8441 3.59604 86.9422 3.59604C82.1934 3.59604 78.632 7.32499 78.632 12.2823C78.632 17.3273 82.2374 20.9686 87.0739 20.9686C90.0201 20.9686 92.4383 19.7402 94.0651 17.5467L95.6041 18.6434C93.5815 21.2756 90.7236 22.7234 87.0299 22.7234C81.182 22.7673 76.6094 18.3803 76.6094 12.2823Z" fill="#F9F9FA"/>
<path d="M87.0735 22.9862C84.1273 22.9862 81.4012 21.8894 79.4225 19.9153C77.4438 17.9411 76.3887 15.2212 76.3887 12.2819C76.3887 6.18399 80.9615 1.57764 86.9855 1.57764C90.4152 1.57764 93.2731 2.9376 95.2077 5.48207L95.3397 5.65755L93.449 7.01752L93.3171 6.84205C91.734 4.82402 89.5797 3.81499 86.8975 3.81499C82.2806 3.81499 78.8069 7.45621 78.8069 12.2819C78.8069 17.1954 82.2806 20.7488 87.0295 20.7488C89.8433 20.7488 92.1739 19.6083 93.8446 17.4148L93.9766 17.2392L95.8673 18.5992L95.7353 18.7746C93.7127 21.5824 90.7668 22.9862 87.0735 22.9862ZM86.9855 2.01634C81.2255 2.01634 76.8286 6.44721 76.8286 12.2819C76.8286 15.1335 77.8397 17.7218 79.7304 19.6083C81.6211 21.4946 84.2153 22.5475 87.0735 22.5475C90.5469 22.5475 93.3171 21.2753 95.3397 18.7309L94.1526 17.8972C92.4376 20.0907 90.0193 21.2314 87.1174 21.2314C82.1047 21.2314 78.4553 17.4585 78.4553 12.3258C78.4553 7.23688 82.1047 3.42018 86.9855 3.42018C89.7556 3.42018 91.954 4.42918 93.6247 6.49107L94.7681 5.65755C92.8775 3.24468 90.1953 2.01634 86.9855 2.01634Z" fill="#F9F9FA"/>
<path d="M76.6094 12.2823C76.6094 6.18438 81.182 1.79736 86.9862 1.79736C90.4597 1.79736 93.1858 3.20121 95.0325 5.61404L93.5375 6.71079C91.9987 4.73665 89.8441 3.59604 86.9422 3.59604C82.1934 3.59604 78.632 7.32499 78.632 12.2823C78.632 17.3273 82.2374 20.9686 87.0739 20.9686C90.0201 20.9686 92.4383 19.7402 94.0651 17.5467L95.6041 18.6434C93.5815 21.2756 90.7236 22.7234 87.0299 22.7234C81.182 22.7673 76.6094 18.3803 76.6094 12.2823Z" fill="#F9F9FA"/>
<path d="M87.0735 22.9862C84.1273 22.9862 81.4012 21.8894 79.4225 19.9153C77.4438 17.9411 76.3887 15.2212 76.3887 12.2819C76.3887 6.18399 80.9615 1.57764 86.9855 1.57764C90.4152 1.57764 93.2731 2.9376 95.2077 5.48207L95.3397 5.65755L93.449 7.01752L93.3171 6.84205C91.734 4.82402 89.5797 3.81499 86.8975 3.81499C82.2806 3.81499 78.8069 7.45621 78.8069 12.2819C78.8069 17.1954 82.2806 20.7488 87.0295 20.7488C89.8433 20.7488 92.1739 19.6083 93.8446 17.4148L93.9766 17.2392L95.8673 18.5992L95.7353 18.7746C93.7127 21.5824 90.7668 22.9862 87.0735 22.9862ZM86.9855 2.01634C81.2255 2.01634 76.8286 6.44721 76.8286 12.2819C76.8286 15.1335 77.8397 17.7218 79.7304 19.6083C81.6211 21.4946 84.2153 22.5475 87.0735 22.5475C90.5469 22.5475 93.3171 21.2753 95.3397 18.7309L94.1526 17.8972C92.4376 20.0907 90.0193 21.2314 87.1174 21.2314C82.1047 21.2314 78.4553 17.4585 78.4553 12.3258C78.4553 7.23688 82.1047 3.42018 86.9855 3.42018C89.7556 3.42018 91.954 4.42918 93.6247 6.49107L94.7681 5.65755C92.8775 3.24468 90.1953 2.01634 86.9855 2.01634Z" fill="#F9F9FA"/>
<path d="M13.0283 2.05957H11.2256V6.53431H13.0283V2.05957Z" fill="#F9F9FA"/>
<path d="M13.2922 6.75304H11.0059V1.8396H13.2922V6.75304ZM11.4456 6.31434H12.8086V2.27831H11.4456V6.31434Z" fill="#F9F9FA"/>
<path d="M2.65137 12.2825H8.36743V13.9934H2.65137" fill="#F9F9FA"/>
<path d="M8.58729 14.2537H2.65137V13.7713H8.1476V12.499H2.65137V12.0603H8.58729V14.2537Z" fill="#F9F9FA"/>
<path d="M13.0285 1.8396H10.7861H0.321289V22.7656H2.73963V14.2548H8.32378V12.0613H2.73963V4.03309H10.7861V6.75304H13.0285V1.8396Z" fill="#F9F9FA"/>
<path d="M140.76 3.85771V22.8095H139.881V1.31323H140.013L154.743 20.7915V1.83967H155.622V23.336H155.49L140.76 3.85771Z" fill="#F9F9FA"/>
<path d="M166.176 2.71701H159.448V1.8396H173.915V2.71701H167.187V22.8095H166.219V2.71701H166.176Z" fill="#F9F9FA"/>
<path d="M177.563 15.878V1.8396H178.531V15.7903C178.531 19.914 180.993 22.1953 184.467 22.1953C187.94 22.1953 190.447 19.9579 190.447 15.7903V1.8396H191.414V15.9219C191.414 20.5721 188.381 23.0727 184.422 23.0727C180.465 23.0727 177.563 20.5721 177.563 15.878Z" fill="#F9F9FA"/>
<path d="M209.09 22.8095H207.858L203.153 17.238C202.582 17.2818 201.967 17.3696 201.351 17.3696H198.405V22.8095H197.438V1.8396H201.395C207.023 1.8396 209.793 5.30532 209.793 9.60459C209.793 13.0704 207.947 16.0096 204.253 17.0187L209.09 22.8095ZM201.219 16.4922C206.584 16.4922 208.782 13.4213 208.782 9.60459C208.782 5.7879 206.539 2.71701 201.219 2.71701H198.361V16.4922H201.219Z" fill="#F9F9FA"/>
<path d="M215.686 15.4832V21.9321H227.249V22.8095H214.718V1.8396H226.853V2.71701H215.729V14.6496L215.686 15.4832ZM215.686 13.3774H223.775V14.2548H215.686" fill="#F9F9FA"/>
<path d="M123.612 15.4832V21.9321H135.177V22.8095H122.645V1.8396H134.781V2.71701H123.657V14.6496L123.612 15.4832ZM123.612 13.3774H131.703V14.2548H123.612" fill="#F9F9FA"/>
<path d="M230.767 18.5102C231.953 20.7914 234.152 22.1952 236.835 22.1952C240.22 22.1952 242.111 20.4404 242.111 17.8521C242.111 15.3076 240.748 13.9476 237.67 12.4561L235.735 11.5348C232.789 10.0871 231.162 8.94647 231.162 6.27042C231.162 3.46273 233.404 1.66406 236.22 1.66406C238.769 1.66406 240.44 2.58533 241.715 4.60334L240.967 5.04206C239.869 3.33111 238.418 2.49759 236.22 2.49759C233.801 2.49759 232.13 4.12078 232.13 6.27042C232.13 8.55164 233.404 9.3852 236.175 10.7452L238.066 11.6664C241.583 13.3773 243.078 15.0444 243.078 17.8521C243.078 20.9668 240.748 23.1166 236.835 23.1166C233.536 23.1166 231.206 21.4494 229.932 19.0366L230.767 18.5102Z" fill="#F9F9FA"/>
<path d="M117.853 1.8396H117.413H113.148V2.71701H117.062L109.806 21.0985L102.507 2.71701H106.421V1.8396H102.156H101.716H101.145L109.675 23.336H109.806L118.38 1.8396H117.853Z" fill="#F9F9FA"/>
</g>
</svg>
