<svg width="145" height="25" viewBox="0 0 145 25" fill="none" xmlns="http://www.w3.org/2000/svg">
<path fill-rule="evenodd" clip-rule="evenodd" d="M0.0439453 5.88498V11.028H4.12097V5.88498H0.0439453ZM4.14772 5.88296H13.2794V2.01276H4.14772V5.88296ZM144.13 8.42368H138.989L133.967 13.8301V1.56958H130.038V22.9591H133.967V19.1184L135.592 17.4049L139.432 22.9591H144.248L138.31 14.5392L144.13 8.42368ZM4.15051 22.9591V14.8051H12.275V11.0531H4.14777V14.8243H0.0439453V22.9591H4.15051ZM23.6002 8.36463C23.3049 8.33506 23.0094 8.30553 22.6844 8.30553C21.4436 8.30553 19.4347 8.66003 18.5484 10.5804V8.42368H14.7373V22.9591H18.6666V16.3118C18.6666 13.1802 20.4096 12.2053 22.4186 12.2053C22.7731 12.2053 23.1571 12.2348 23.6002 12.3235V8.36463ZM29.9664 23.3727C26.8644 23.3727 24.9736 21.2752 24.9736 19.0002C24.9736 16.4004 26.8939 14.9528 29.3166 14.5983L32.8912 14.0665C33.7186 13.9483 33.9844 13.5347 33.9844 13.0325C33.9844 11.9985 33.1867 11.1417 31.5322 11.1417C29.8187 11.1417 28.8734 12.2348 28.7552 13.5052L25.2691 12.7666C25.5054 10.4917 27.6029 7.98056 31.5027 7.98056C36.1116 7.98056 37.8251 10.5804 37.8251 13.5052V20.6547C37.8251 21.4229 37.9137 22.4569 38.0022 22.9591H34.3979C34.3094 22.5751 34.2502 21.7774 34.2502 21.2161C33.5117 22.3682 32.1231 23.3727 29.9664 23.3727ZM28.9029 18.7639C28.9029 19.6207 29.5232 20.4479 30.7937 20.4479C32.4481 20.4479 33.9844 19.6502 33.9844 17.0799V16.43L30.7051 16.9322C29.7006 17.0799 28.9029 17.6412 28.9029 18.7639ZM44.1164 22.9591V14.4506C44.1164 12.8552 45.1211 11.5849 46.8346 11.5849C48.6071 11.5849 49.4047 12.7666 49.4047 14.3324V22.9591H53.3044V14.4506C53.3044 12.8848 54.3091 11.5849 55.9929 11.5849C57.7951 11.5849 58.5631 12.7666 58.5631 14.3324V22.9591H62.3746V13.5347C62.3746 9.63496 59.8039 8.01008 57.1154 8.01008C55.1952 8.01008 53.6591 8.66003 52.5069 10.4326C51.7682 8.86686 50.1731 8.01008 48.1934 8.01008C46.5982 8.01008 44.7366 8.77823 43.9392 10.1963V8.42368H40.1872V22.9591H44.1164ZM85.8501 17.7594L89.0111 8.42368H93.1471L96.2791 17.7891L98.9671 8.42368H102.867L98.3171 22.9591H94.3881L90.9907 13.0325L87.6522 22.9591H83.6639L79.0254 8.42368H83.1616L85.8501 17.7594ZM110.38 19.8276C108.46 19.8276 106.687 18.4094 106.687 15.6914C106.687 12.9438 108.46 11.5553 110.38 11.5553C112.301 11.5553 114.073 12.9438 114.073 15.6914C114.073 18.4391 112.301 19.8276 110.38 19.8276ZM110.38 7.98056C106.037 7.98056 102.758 11.2008 102.758 15.6914C102.758 20.1526 106.037 23.4022 110.38 23.4022C114.723 23.4022 118.002 20.1526 118.002 15.6914C118.002 11.2008 114.723 7.98056 110.38 7.98056ZM127.453 8.30553C127.778 8.30553 128.073 8.33506 128.369 8.36463V12.3235C127.925 12.2348 127.541 12.2053 127.187 12.2053C125.178 12.2053 123.435 13.1802 123.435 16.3118V22.9591H119.506V8.42368H123.317V10.5804C124.203 8.66003 126.212 8.30553 127.453 8.30553Z" fill="#F9F9FA"/>
<path d="M68.1247 14.0369C68.2133 12.7074 69.3358 11.1711 71.3745 11.1711C73.62 11.1711 74.5653 12.5893 74.6242 14.0369H68.1247ZM75.0087 17.8185C74.536 19.1183 73.5313 20.0341 71.6995 20.0341C69.7495 20.0341 68.1247 18.6456 68.036 16.7253H78.4359C78.4359 16.6662 78.4947 16.0754 78.4947 15.5141C78.4947 10.8462 75.8062 7.98047 71.3155 7.98047C67.5932 7.98047 64.166 10.9939 64.166 15.6323C64.166 20.5365 67.6818 23.4021 71.6702 23.4021C75.245 23.4021 77.549 21.3046 78.2877 18.7935L75.0087 17.8185Z" fill="#F9F9FA"/>
</svg>
