<svg width="175" height="25" viewBox="0 0 175 25" fill="none" xmlns="http://www.w3.org/2000/svg">
<path d="M1.83984 19.9999V2.80666H7.3908C8.7335 2.80666 9.8306 3.02773 10.6821 3.46983C11.5336 3.91196 12.164 4.51781 12.5733 5.28741C12.9827 6.05701 13.1874 6.90848 13.1874 7.84183C13.1874 8.92256 12.8927 9.89683 12.3032 10.7647C11.7301 11.6325 10.8295 12.2466 9.60135 12.6068L13.3593 19.9999H10.9277L7.43993 12.9016H7.29255H3.90303V19.9999H1.83984ZM3.90303 11.2805H7.24343C8.56978 11.2805 9.53588 10.9612 10.1417 10.3226C10.7476 9.68396 11.0505 8.86523 11.0505 7.86638C11.0505 6.85118 10.7476 6.04881 10.1417 5.45933C9.55223 4.85348 8.57795 4.55056 7.21888 4.55056H3.90303V11.2805ZM21.084 20.2947C19.9378 20.2947 18.9062 20.0327 17.9892 19.5087C17.0722 18.9847 16.3436 18.2478 15.8032 17.2981C15.2792 16.332 15.0172 15.2022 15.0172 13.9086C15.0172 12.615 15.2874 11.4934 15.8278 10.5436C16.3681 9.57753 17.0968 8.83248 18.0138 8.30851C18.9471 7.78451 19.9869 7.52253 21.1331 7.52253C22.2793 7.52253 23.3109 7.78451 24.2279 8.30851C25.1449 8.83248 25.8654 9.57753 26.3894 10.5436C26.9296 11.4934 27.1999 12.615 27.1999 13.9086C27.1999 15.2022 26.9296 16.332 26.3894 17.2981C25.8489 18.2478 25.1121 18.9847 24.1788 19.5087C23.2618 20.0327 22.2302 20.2947 21.084 20.2947ZM21.084 18.5262C21.7881 18.5262 22.4431 18.3543 23.0489 18.0104C23.6548 17.6665 24.146 17.1507 24.5226 16.463C24.8993 15.7753 25.0876 14.9238 25.0876 13.9086C25.0876 12.8934 24.8993 12.0419 24.5226 11.3542C24.1624 10.6664 23.6794 10.1506 23.0735 9.80678C22.4676 9.46291 21.8209 9.29098 21.1331 9.29098C20.429 9.29098 19.774 9.46291 19.1682 9.80678C18.5623 10.1506 18.0711 10.6664 17.6945 11.3542C17.3179 12.0419 17.1296 12.8934 17.1296 13.9086C17.1296 14.9238 17.3179 15.7753 17.6945 16.463C18.0711 17.1507 18.5541 17.6665 19.1436 18.0104C19.7495 18.3543 20.3963 18.5262 21.084 18.5262ZM36.5776 20.2947C35.5786 20.2947 34.6861 20.09 33.9004 19.6806C33.1306 19.2712 32.5411 18.6981 32.1319 17.9613L31.9354 19.9999H30.0686V2.31543H32.1319V9.83133C32.5249 9.24186 33.0816 8.70968 33.8021 8.23481C34.5389 7.75996 35.4721 7.52253 36.6021 7.52253C37.8139 7.52253 38.8699 7.80088 39.7706 8.35763C40.6711 8.91436 41.3671 9.67578 41.8584 10.6419C42.3659 11.608 42.6196 12.7051 42.6196 13.9332C42.6196 15.1612 42.3659 16.2583 41.8584 17.2244C41.3671 18.1742 40.6629 18.9274 39.7459 19.4841C38.8454 20.0245 37.7891 20.2947 36.5776 20.2947ZM36.3564 18.5016C37.1751 18.5016 37.8956 18.3133 38.5179 17.9367C39.1401 17.5437 39.6314 17.0034 39.9916 16.3156C40.3519 15.6279 40.5319 14.8256 40.5319 13.9086C40.5319 12.9916 40.3519 12.1893 39.9916 11.5015C39.6314 10.8138 39.1401 10.2816 38.5179 9.90501C37.8956 9.51203 37.1751 9.31553 36.3564 9.31553C35.5376 9.31553 34.8171 9.51203 34.1951 9.90501C33.5729 10.2816 33.0816 10.8138 32.7214 11.5015C32.3611 12.1893 32.1809 12.9916 32.1809 13.9086C32.1809 14.8256 32.3611 15.6279 32.7214 16.3156C33.0816 17.0034 33.5729 17.5437 34.1951 17.9367C34.8171 18.3133 35.5376 18.5016 36.3564 18.5016ZM51.0426 20.2947C49.8964 20.2947 48.8649 20.0327 47.9479 19.5087C47.0309 18.9847 46.3021 18.2478 45.7619 17.2981C45.2379 16.332 44.9759 15.2022 44.9759 13.9086C44.9759 12.615 45.2461 11.4934 45.7864 10.5436C46.3269 9.57753 47.0554 8.83248 47.9724 8.30851C48.9059 7.78451 49.9456 7.52253 51.0919 7.52253C52.2379 7.52253 53.2696 7.78451 54.1866 8.30851C55.1036 8.83248 55.8241 9.57753 56.3481 10.5436C56.8884 11.4934 57.1586 12.615 57.1586 13.9086C57.1586 15.2022 56.8884 16.332 56.3481 17.2981C55.8076 18.2478 55.0709 18.9847 54.1374 19.5087C53.2204 20.0327 52.1889 20.2947 51.0426 20.2947ZM51.0426 18.5262C51.7469 18.5262 52.4016 18.3543 53.0076 18.0104C53.6134 17.6665 54.1046 17.1507 54.4814 16.463C54.8579 15.7753 55.0461 14.9238 55.0461 13.9086C55.0461 12.8934 54.8579 12.0419 54.4814 11.3542C54.1211 10.6664 53.6381 10.1506 53.0321 9.80678C52.4264 9.46291 51.7796 9.29098 51.0919 9.29098C50.3876 9.29098 49.7326 9.46291 49.1269 9.80678C48.5209 10.1506 48.0296 10.6664 47.6531 11.3542C47.2766 12.0419 47.0881 12.8934 47.0881 13.9086C47.0881 14.9238 47.2766 15.7753 47.6531 16.463C48.0296 17.1507 48.5129 17.6665 49.1024 18.0104C49.7081 18.3543 50.3549 18.5262 51.0426 18.5262ZM64.3616 19.9999C63.2481 19.9999 62.3721 19.7297 61.7336 19.1894C61.0949 18.649 60.7756 17.6747 60.7756 16.2665V9.56116H58.6634V7.81726H60.7756L61.0459 4.89441H62.8389V7.81726H66.4249V9.56116H62.8389V16.2665C62.8389 17.0361 62.9944 17.5601 63.3056 17.8385C63.6166 18.1005 64.1651 18.2315 64.9511 18.2315H66.2284V19.9999H64.3616ZM80.8516 19.9999L74.3919 2.80666H76.6271L82.0551 17.8139L87.5324 2.80666H89.7184L83.2586 19.9999H80.8516ZM95.8229 20.2947C94.6604 20.2947 93.6289 20.0327 92.7281 19.5087C91.8276 18.9683 91.1153 18.2233 90.5914 17.2736C90.0836 16.3238 89.8298 15.2022 89.8298 13.9086C89.8298 12.6314 90.0836 11.5179 90.5914 10.5682C91.0989 9.60208 91.8031 8.85706 92.7036 8.33306C93.6206 7.79271 94.6768 7.52253 95.8721 7.52253C97.0511 7.52253 98.0664 7.79271 98.9179 8.33306C99.7856 8.85706 100.449 9.55296 100.907 10.4208C101.366 11.2887 101.595 12.222 101.595 13.2209C101.595 13.401 101.587 13.5811 101.57 13.7612C101.57 13.9413 101.57 14.146 101.57 14.3753H91.8686C91.9176 15.3086 92.1306 16.0864 92.5071 16.7086C92.9001 17.3145 93.3831 17.773 93.9564 18.0841C94.5459 18.3952 95.1681 18.5508 95.8229 18.5508C96.6744 18.5508 97.3869 18.3543 97.9599 17.9613C98.5329 17.5683 98.9506 17.0361 99.2126 16.3648H101.251C100.924 17.4946 100.293 18.4361 99.3598 19.1894C98.4428 19.9262 97.2639 20.2947 95.8229 20.2947ZM95.8229 9.26641C94.8406 9.26641 93.9644 9.56933 93.1949 10.1752C92.4416 10.7647 92.0076 11.6325 91.8931 12.7788H99.5564C99.5074 11.6817 99.1306 10.822 98.4266 10.1998C97.7224 9.57753 96.8546 9.26641 95.8229 9.26641ZM104.33 19.9999V7.81726H106.196L106.319 10.0033C106.712 9.23366 107.277 8.62781 108.014 8.18568C108.751 7.74358 109.586 7.52253 110.519 7.52253C111.96 7.52253 113.106 7.96463 113.958 8.84886C114.826 9.71671 115.26 11.0594 115.26 12.877V19.9999H113.196V13.0981C113.196 10.56 112.148 9.29098 110.053 9.29098C109.005 9.29098 108.129 9.67578 107.424 10.4454C106.737 11.1986 106.393 12.2793 106.393 13.6875V19.9999H104.33ZM123.2 19.9999C122.086 19.9999 121.21 19.7297 120.571 19.1894C119.933 18.649 119.614 17.6747 119.614 16.2665V9.56116H117.501V7.81726H119.614L119.884 4.89441H121.677V7.81726H125.263V9.56116H121.677V16.2665C121.677 17.0361 121.832 17.5601 122.143 17.8385C122.455 18.1005 123.003 18.2315 123.789 18.2315H125.066V19.9999H123.2ZM132.33 20.2947C130.889 20.2947 129.742 19.8607 128.891 18.9929C128.04 18.1087 127.614 16.7578 127.614 14.9402V7.81726H129.677V14.7191C129.677 17.2572 130.717 18.5262 132.796 18.5262C133.861 18.5262 134.737 18.1496 135.424 17.3964C136.129 16.6268 136.481 15.5379 136.481 14.1296V7.81726H138.544V19.9999H136.677L136.53 17.8139C136.153 18.5835 135.588 19.1894 134.835 19.6315C134.098 20.0736 133.263 20.2947 132.33 20.2947ZM141.94 19.9999V7.81726H143.807L143.978 10.1506C144.355 9.34828 144.928 8.70968 145.698 8.23481C146.467 7.75996 147.417 7.52253 148.547 7.52253V9.68396H147.982C147.262 9.68396 146.598 9.81496 145.993 10.077C145.387 10.3226 144.904 10.7483 144.543 11.3542C144.183 11.96 144.003 12.7951 144.003 13.8595V19.9999H141.94ZM155.884 20.2947C154.722 20.2947 153.69 20.0327 152.789 19.5087C151.889 18.9683 151.177 18.2233 150.653 17.2736C150.145 16.3238 149.891 15.2022 149.891 13.9086C149.891 12.6314 150.145 11.5179 150.653 10.5682C151.16 9.60208 151.864 8.85706 152.765 8.33306C153.682 7.79271 154.738 7.52253 155.933 7.52253C157.112 7.52253 158.128 7.79271 158.979 8.33306C159.847 8.85706 160.51 9.55296 160.968 10.4208C161.427 11.2887 161.656 12.222 161.656 13.2209C161.656 13.401 161.648 13.5811 161.632 13.7612C161.632 13.9413 161.632 14.146 161.632 14.3753H151.93C151.979 15.3086 152.192 16.0864 152.568 16.7086C152.961 17.3145 153.444 17.773 154.018 18.0841C154.607 18.3952 155.229 18.5508 155.884 18.5508C156.736 18.5508 157.448 18.3543 158.021 17.9613C158.594 17.5683 159.012 17.0361 159.274 16.3648H161.312C160.985 17.4946 160.354 18.4361 159.421 19.1894C158.504 19.9262 157.325 20.2947 155.884 20.2947ZM155.884 9.26641C154.902 9.26641 154.026 9.56933 153.256 10.1752C152.503 10.7647 152.069 11.6325 151.954 12.7788H159.618C159.568 11.6817 159.192 10.822 158.488 10.1998C157.784 9.57753 156.916 9.26641 155.884 9.26641ZM169.058 20.2947C167.6 20.2947 166.388 19.9262 165.422 19.1894C164.456 18.4525 163.891 17.4537 163.728 16.1928H165.84C165.971 16.8314 166.307 17.3882 166.847 17.863C167.404 18.3215 168.149 18.5508 169.082 18.5508C169.95 18.5508 170.589 18.3706 170.998 18.0104C171.407 17.6338 171.612 17.1917 171.612 16.6841C171.612 15.9472 171.342 15.456 170.801 15.2104C170.277 14.9647 169.532 14.7437 168.566 14.5472C167.911 14.4162 167.256 14.2279 166.601 13.9823C165.946 13.7367 165.398 13.3928 164.956 12.9507C164.514 12.4922 164.293 11.8945 164.293 11.1577C164.293 10.0933 164.686 9.22548 165.472 8.55413C166.274 7.86638 167.355 7.52253 168.714 7.52253C170.007 7.52253 171.063 7.85001 171.882 8.50501C172.717 9.14361 173.2 10.0606 173.331 11.2559H171.293C171.211 10.6337 170.941 10.1506 170.482 9.80678C170.04 9.44653 169.442 9.26641 168.689 9.26641C167.952 9.26641 167.379 9.42198 166.97 9.73308C166.577 10.0442 166.38 10.4536 166.38 10.9612C166.38 11.4524 166.634 11.8372 167.142 12.1156C167.666 12.3939 168.37 12.6314 169.254 12.8279C170.007 12.9916 170.72 13.1963 171.391 13.4419C172.079 13.6712 172.635 14.0232 173.061 14.4981C173.503 14.9566 173.724 15.6279 173.724 16.5121C173.741 17.6092 173.323 18.518 172.472 19.2385C171.637 19.9426 170.499 20.2947 169.058 20.2947Z" fill="#F9F9FA"/>
</svg>
