<svg width="228" height="25" viewBox="0 0 228 25" fill="none" xmlns="http://www.w3.org/2000/svg">
<mask id="mask0_4012_339" style="mask-type:luminance" maskUnits="userSpaceOnUse" x="3" y="0" width="224" height="25">
<path d="M226.588 0.713379H3.45996V24.1056H226.588V0.713379Z" fill="white"/>
</mask>
<g mask="url(#mask0_4012_339)">
<path d="M4.13626 2.13044C4.00989 1.69637 4.26016 1.38288 4.69995 1.38288H7.58166C7.83192 1.38288 8.08219 1.59992 8.14539 1.81695L11.4037 14.2263H11.5276L16.5087 1.41423C16.5718 1.22855 16.7273 1.07422 17.0408 1.07422H17.6045C17.9179 1.07422 18.0734 1.22855 18.1366 1.41423L23.1565 14.2263H23.2828L26.478 1.81695C26.5411 1.59992 26.7915 1.38288 27.0418 1.38288H29.9234C30.3607 1.38288 30.6136 1.69396 30.4872 2.13044L24.5658 23.0281C24.5027 23.2764 24.2524 23.4621 24.002 23.4621H23.5016C23.2197 23.4621 23.0325 23.3054 22.9694 23.1197L17.3615 9.03443H17.206L11.6588 23.1197C11.5641 23.3054 11.4401 23.4621 11.1267 23.4621H10.6262C10.3759 23.4621 10.1256 23.2741 10.0625 23.0281L4.13626 2.13044Z" fill="#F9F9FA"/>
<path d="M36.6924 1.97655C36.6924 1.66547 36.9742 1.38574 37.2877 1.38574H40.2007C40.5142 1.38574 40.7964 1.66547 40.7964 1.97655V22.5632C40.7964 22.8742 40.5142 23.1539 40.2007 23.1539H37.2877C36.9742 23.1539 36.6924 22.8742 36.6924 22.5632V1.97655Z" fill="#F9F9FA"/>
<path d="M49.1519 1.63392C49.1519 1.32285 49.4337 1.07446 49.7472 1.07446H50.5295L63.5629 14.8173H63.5946V1.97635C63.5946 1.66527 63.8447 1.38554 64.1899 1.38554H67.0716C67.3851 1.38554 67.6669 1.66527 67.6669 1.97635V22.903C67.6669 23.214 67.3851 23.4624 67.0716 23.4624H66.3182L53.2217 9.18899H53.1904V22.5605C53.1904 22.8716 52.9399 23.1513 52.5951 23.1513H49.7447C49.4312 23.1513 49.1494 22.8716 49.1494 22.5605L49.1519 1.63392Z" fill="#F9F9FA"/>
<path d="M78.9226 5.11624H74.1289C73.7836 5.11624 73.5332 4.83652 73.5332 4.52545V1.97655C73.5332 1.66547 73.7836 1.38574 74.1289 1.38574H87.8206C88.1655 1.38574 88.4155 1.66547 88.4155 1.97655V4.52545C88.4155 4.83652 88.1655 5.11624 87.8206 5.11624H83.0266V22.5607C83.0266 22.8718 82.7448 23.1516 82.4313 23.1516H79.5179C79.2044 23.1516 78.9226 22.8718 78.9226 22.5607V5.11624Z" fill="#F9F9FA"/>
<path d="M94.2637 1.97655C94.2637 1.66547 94.5138 1.38574 94.859 1.38574H107.61C107.955 1.38574 108.206 1.66547 108.206 1.97655V4.52545C108.206 4.83652 107.955 5.11624 107.61 5.11624H98.336V10.2165H106.075C106.388 10.2165 106.67 10.4962 106.67 10.8073V13.3875C106.67 13.73 106.388 13.9783 106.075 13.9783H98.336V19.421H107.61C107.955 19.421 108.206 19.7008 108.206 20.0119V22.5632C108.206 22.8742 107.955 23.1539 107.61 23.1539H94.859C94.5138 23.1539 94.2637 22.8742 94.2637 22.5632V1.97655Z" fill="#F9F9FA"/>
<path d="M115.537 1.97655C115.537 1.66547 115.787 1.38574 116.132 1.38574H125.094C128.852 1.38574 131.924 4.37113 131.924 8.0727C131.924 10.9327 130.011 13.2646 127.287 14.3545L131.581 22.2521C131.8 22.6572 131.581 23.1539 131.049 23.1539H127.759C127.477 23.1539 127.322 22.9995 127.258 22.8742L123.091 14.6343H119.614V22.5632C119.614 22.8742 119.332 23.1539 119.019 23.1539H116.137C115.792 23.1539 115.542 22.8742 115.542 22.5632V1.97655H115.537ZM124.748 11.3041C126.408 11.3041 127.851 9.87406 127.851 8.13299C127.851 6.48595 126.41 5.11624 124.748 5.11624H119.641V11.3041H124.748Z" fill="#F9F9FA"/>
<path d="M141.262 1.53987C141.294 1.2915 141.481 1.07446 141.825 1.07446H142.326C142.576 1.07446 142.763 1.19745 142.858 1.38554L149.752 16.0641C149.815 16.0641 149.815 16.0641 149.846 16.0641L156.739 1.38554C156.834 1.19986 156.99 1.07446 157.272 1.07446H157.772C158.117 1.07446 158.304 1.2915 158.336 1.53987L162.034 22.4351C162.128 22.8691 161.877 23.1513 161.47 23.1513H158.62C158.338 23.1513 158.088 22.903 158.025 22.6859L156.176 10.9011C156.144 10.9011 156.081 10.9011 156.081 10.9011L150.597 23.1224C150.534 23.3081 150.347 23.4649 150.065 23.4649H149.504C149.222 23.4649 149.066 23.3081 148.971 23.1224L143.424 10.9011C143.424 10.9011 143.361 10.9011 143.329 10.9011L141.512 22.6859C141.481 22.903 141.23 23.1513 140.948 23.1513H138.128C137.719 23.1513 137.469 22.8716 137.532 22.4351L141.262 1.53987Z" fill="#F9F9FA"/>
<path d="M168.493 1.97655C168.493 1.66547 168.776 1.38574 169.088 1.38574H172.065C172.41 1.38574 172.66 1.66547 172.66 1.97655V14.6946C172.66 17.3375 174.478 19.421 177.205 19.421C179.931 19.421 181.78 17.3375 181.78 14.7259V1.97655C181.78 1.66547 182.03 1.38574 182.374 1.38574H185.352C185.664 1.38574 185.947 1.66547 185.947 1.97655V14.9116C185.947 19.6381 182.156 23.4625 177.205 23.4625C172.286 23.4625 168.493 19.6381 168.493 14.9116V1.97655Z" fill="#F9F9FA"/>
<path d="M197.043 5.11624H192.248C191.904 5.11624 191.654 4.83652 191.654 4.52545V1.97655C191.654 1.66547 191.904 1.38574 192.248 1.38574H205.941C206.287 1.38574 206.536 1.66547 206.536 1.97655V4.52545C206.536 4.83652 206.287 5.11624 205.941 5.11624H201.147V22.5607C201.147 22.8718 200.865 23.1516 200.551 23.1516H197.638C197.325 23.1516 197.043 22.8718 197.043 22.5607V5.11624Z" fill="#F9F9FA"/>
<path d="M212.384 1.97655C212.384 1.66547 212.634 1.38574 212.979 1.38574H225.731C226.075 1.38574 226.326 1.66547 226.326 1.97655V4.52545C226.326 4.83652 226.075 5.11624 225.731 5.11624H216.457V10.2165H224.196C224.508 10.2165 224.789 10.4962 224.789 10.8073V13.3875C224.789 13.73 224.508 13.9783 224.196 13.9783H216.457V19.421H225.731C226.075 19.421 226.326 19.7008 226.326 20.0119V22.5632C226.326 22.8742 226.075 23.1539 225.731 23.1539H212.979C212.634 23.1539 212.384 22.8742 212.384 22.5632V1.97655Z" fill="#F9F9FA"/>
</g>
</svg>
