<svg width="24" height="24" viewBox="0 0 24 24" fill="none" xmlns="http://www.w3.org/2000/svg">
<path fill-rule="evenodd" clip-rule="evenodd" d="M10 3H4C3.44772 3 3 3.44772 3 4V10C3 10.5523 3.44772 11 4 11H10C10.5523 11 11 10.5523 11 10V4C11 3.44772 10.5523 3 10 3ZM4 2C2.89543 2 2 2.89543 2 4V10C2 11.1046 2.89543 12 4 12H10C11.1046 12 12 11.1046 12 10V4C12 2.89543 11.1046 2 10 2H4ZM10 15H4C3.44772 15 3 15.4477 3 16V19C3 19.5523 3.44772 20 4 20H10C10.5523 20 11 19.5523 11 19V16C11 15.4477 10.5523 15 10 15ZM4 14C2.89543 14 2 14.8954 2 16V19C2 20.1046 2.89543 21 4 21H10C11.1046 21 12 20.1046 12 19V16C12 14.8954 11.1046 14 10 14H4ZM16 3H20C20.5523 3 21 3.44772 21 4V19C21 19.5523 20.5523 20 20 20H16C15.4477 20 15 19.5523 15 19V4C15 3.44772 15.4477 3 16 3ZM14 4C14 2.89543 14.8954 2 16 2H20C21.1046 2 22 2.89543 22 4V19C22 20.1046 21.1046 21 20 21H16C14.8954 21 14 20.1046 14 19V4Z" fill="white"/>
</svg>
