<svg width="24" height="24" viewBox="0 0 24 24" fill="none" xmlns="http://www.w3.org/2000/svg">
<path fill-rule="evenodd" clip-rule="evenodd" d="M16.4114 2.55007C16.8209 2.47277 17.2424 2.48644 17.6461 2.59012C18.0515 2.69421 18.4288 2.88648 18.7513 3.15321C19.0737 3.41994 19.3334 3.75455 19.5116 4.13317C19.6899 4.51179 19.7824 4.92509 19.7825 5.34357V5.34373V6.26431C21.1686 6.40575 22.25 7.57657 22.25 8.99998V18C22.25 19.5188 21.0188 20.75 19.5 20.75H4.5C2.98122 20.75 1.75 19.5188 1.75 18V9.74998V8.99998V7.45326V7.4531C1.74963 6.79105 1.98027 6.14961 2.40216 5.63938C2.82412 5.12906 3.41093 4.78199 4.0614 4.65804L4.07086 4.65623L4.07088 4.65632L16.4114 2.55007ZM18.7825 5.34389V6.24998H4.5C3.89282 6.24998 3.33159 6.44676 2.87662 6.78003C2.94746 6.59888 3.04703 6.42875 3.17283 6.27661C3.44544 5.94691 3.8242 5.72231 4.24415 5.64121L16.5841 3.53504L16.5841 3.53513L16.5936 3.53333C16.8601 3.48253 17.1346 3.49119 17.3974 3.55868C17.6602 3.62617 17.9048 3.75083 18.1139 3.92377C18.323 4.0967 18.4913 4.31365 18.6069 4.55913C18.7224 4.80456 18.7824 5.07246 18.7825 5.34373V5.34389ZM2.75 8.99998L2.75 8.99945C2.75029 8.03319 3.53368 7.24998 4.5 7.24998H19.5C20.4665 7.24998 21.25 8.03348 21.25 8.99998V18C21.25 18.9665 20.4665 19.75 19.5 19.75H4.5C3.5335 19.75 2.75 18.9665 2.75 18V9.74998V8.99998ZM16.4166 14.7472C16.6633 14.912 16.9533 15 17.25 15C17.6478 15 18.0294 14.8419 18.3107 14.5606C18.592 14.2793 18.75 13.8978 18.75 13.5C18.75 13.2033 18.662 12.9133 18.4972 12.6666C18.3324 12.4199 18.0981 12.2277 17.824 12.1142C17.5499 12.0006 17.2483 11.9709 16.9574 12.0288C16.6664 12.0867 16.3991 12.2295 16.1893 12.4393C15.9796 12.6491 15.8367 12.9164 15.7788 13.2073C15.7209 13.4983 15.7506 13.7999 15.8642 14.074C15.9777 14.3481 16.17 14.5824 16.4166 14.7472Z" fill="white"/>
</svg>
