<svg width="24" height="24" viewBox="0 0 24 24" fill="none" xmlns="http://www.w3.org/2000/svg">
<path fill-rule="evenodd" clip-rule="evenodd" d="M15.6718 6.19929C15.8671 6.00403 16.1837 6.00403 16.3789 6.19929L21.3525 11.1729L21.7061 11.5264L21.3525 11.88L16.3789 16.8536C16.1837 17.0488 15.8671 17.0488 15.6718 16.8536C15.4766 16.6583 15.4766 16.3417 15.6718 16.1464L19.792 12.0263L10.4996 12.0263C10.2234 12.0263 9.99955 11.8024 9.99955 11.5263C9.99955 11.2502 10.2234 11.0263 10.4996 11.0263L19.7917 11.0263L15.6718 6.9064C15.4766 6.71114 15.4766 6.39456 15.6718 6.19929ZM7.49955 2L12.4996 2L12.4996 1L7.49955 0.999999C5.01427 0.999999 2.99955 3.01472 2.99955 5.5L2.99955 17.5C2.99955 19.9853 5.01427 22 7.49955 22L12.4995 22L12.4995 21L7.49955 21C5.56655 21 3.99955 19.433 3.99955 17.5L3.99955 5.5C3.99955 3.567 5.56655 2 7.49955 2Z" fill="white"/>
</svg>
