<svg width="24" height="24" viewBox="0 0 24 24" fill="none" xmlns="http://www.w3.org/2000/svg">
<path fill-rule="evenodd" clip-rule="evenodd" d="M12.0263 2.5C11.7502 2.5 11.5263 2.72386 11.5263 3L11.5263 12.2922L7.4064 8.17227C7.21114 7.97701 6.89456 7.97701 6.6993 8.17227C6.50403 8.36753 6.50403 8.68411 6.6993 8.87937L11.6729 13.853L12.0264 14.2065L12.38 13.853L17.3536 8.87938C17.5488 8.68411 17.5488 8.36753 17.3536 8.17227C17.1583 7.97701 16.8417 7.97701 16.6464 8.17227L12.5263 12.2924L12.5263 3C12.5263 2.72386 12.3024 2.5 12.0263 2.5ZM2.5 16V11H1.5V16C1.5 18.4853 3.51472 20.5 6 20.5H18C20.4853 20.5 22.5 18.4853 22.5 16V11H21.5V16C21.5 17.933 19.933 19.5 18 19.5H6C4.067 19.5 2.5 17.933 2.5 16Z" fill="white"/>
</svg>
