<svg width="24" height="24" viewBox="0 0 24 24" fill="none" xmlns="http://www.w3.org/2000/svg">
<path fill-rule="evenodd" clip-rule="evenodd" d="M16.7512 2.97624C15.6211 2.96642 14.5323 3.40086 13.7194 4.186L13.7193 4.18595L13.7132 4.1921L12.6654 5.23991C12.4701 5.43517 12.4701 5.75175 12.6654 5.94701C12.8606 6.14228 13.1772 6.14228 13.3725 5.94701L14.4171 4.90238C15.0411 4.30124 15.876 3.96867 16.7425 3.9762C17.6104 3.98374 18.4407 4.33187 19.0544 4.94562C19.6682 5.55936 20.0163 6.3896 20.0238 7.25753C20.0314 8.12408 19.6988 8.95896 19.0976 9.58296L15.2907 13.3899L15.2906 13.39C14.6699 14.0105 13.8281 14.3591 12.9503 14.3591C12.0726 14.3591 11.2308 14.0105 10.61 13.3899C10.4147 13.1947 10.0981 13.1947 9.90291 13.39C9.70768 13.5853 9.70773 13.9019 9.90302 14.0971C10.7113 14.9052 11.8074 15.3591 12.9503 15.3591C14.0933 15.3591 15.1894 14.9052 15.9977 14.0971L15.9977 14.0971L19.8079 10.2869L19.808 10.2869L19.814 10.2807C20.5992 9.46774 21.0336 8.37897 21.0238 7.24885C21.014 6.11872 20.5607 5.03766 19.7615 4.23851C18.9624 3.43936 17.8813 2.98606 16.7512 2.97624ZM11.0452 8.64536C9.90228 8.64536 8.80616 9.0993 7.99787 9.90734L7.99782 9.90739L4.19057 13.7146C3.78041 14.1116 3.45317 14.5861 3.22786 15.1106C3.00197 15.6365 2.88307 16.2021 2.87809 16.7744C2.87312 17.3467 2.98218 17.9142 3.1989 18.444C3.41562 18.9737 3.73567 19.4549 4.14036 19.8596C4.54506 20.2643 5.02631 20.5844 5.55602 20.8011C6.08573 21.0178 6.6533 21.1269 7.22561 21.1219C7.79791 21.1169 8.3635 20.998 8.88937 20.7721C9.41382 20.5468 9.88829 20.2196 10.2852 19.8095L11.3319 18.7638C11.5273 18.5686 11.5274 18.252 11.3322 18.0567C11.1371 17.8613 10.8205 17.8612 10.6251 18.0563L9.57541 19.1051L9.57535 19.1051L9.56916 19.1115C9.2638 19.4276 8.89853 19.6798 8.49467 19.8533C8.09081 20.0268 7.65645 20.1181 7.21692 20.1219C6.77739 20.1257 6.3415 20.042 5.93468 19.8755C5.52787 19.7091 5.15828 19.4633 4.84747 19.1525C4.53667 18.8417 4.29087 18.4721 4.12443 18.0653C3.95799 17.6585 3.87424 17.2226 3.87805 16.7831C3.88187 16.3435 3.97319 15.9092 4.14668 15.5053C4.32016 15.1014 4.57234 14.7362 4.8885 14.4308L4.88855 14.4309L4.8947 14.4247L8.70487 10.6146L8.70492 10.6145C9.32568 9.99396 10.1675 9.64536 11.0452 9.64536C11.9229 9.64536 12.7648 9.99398 13.3855 10.6146C13.5808 10.8098 13.8974 10.8097 14.0926 10.6144C14.2879 10.4192 14.2878 10.1026 14.0925 9.90734C13.2842 9.0993 12.1881 8.64536 11.0452 8.64536Z" fill="white"/>
</svg>
