<svg width="24" height="24" viewBox="0 0 24 24" fill="none" xmlns="http://www.w3.org/2000/svg">
<path fill-rule="evenodd" clip-rule="evenodd" d="M13.5754 20.9821L18.9907 5.50604L3.5164 10.9216L10.0336 13.8193C10.058 13.7563 10.0956 13.6973 10.1464 13.6464L13.1464 10.6464C13.3417 10.4512 13.6583 10.4512 13.8536 10.6464C14.0488 10.8417 14.0488 11.1583 13.8536 11.3536L10.8536 14.3536C10.8024 14.4047 10.7429 14.4425 10.6794 14.4668L13.5754 20.9821ZM19.2291 4.52539C19.048 4.48358 18.8589 4.49356 18.6832 4.55418L18.6812 4.55489L3.16198 9.98614L3.16068 9.9866C2.9739 10.0525 2.81118 10.173 2.69355 10.3324C2.57592 10.4917 2.50878 10.6827 2.5008 10.8807C2.49283 11.0786 2.54439 11.2743 2.64882 11.4427C2.75325 11.611 2.90576 11.7441 3.08663 11.8249L3.08734 11.8252L9.72216 14.7752L12.6711 21.4096C12.7515 21.5911 12.8847 21.7442 13.0532 21.849C13.2218 21.9539 13.4179 22.0057 13.6163 21.9977C13.8146 21.9898 14.006 21.9224 14.1656 21.8043C14.3252 21.6862 14.4456 21.5229 14.5112 21.3355L14.5113 21.3354L19.9416 5.81622L19.9421 5.81488C20.0029 5.6393 20.0132 5.45014 19.9716 5.26901C19.9301 5.08788 19.8384 4.9221 19.7071 4.7906C19.5758 4.6591 19.4102 4.5672 19.2291 4.52539Z" fill="white"/>
</svg>
