<svg width="24" height="24" viewBox="0 0 24 24" fill="none" xmlns="http://www.w3.org/2000/svg">
<path fill-rule="evenodd" clip-rule="evenodd" d="M12.4317 14.3365C12.3204 14.2856 12.1991 14.2621 12.0774 14.268C11.9562 14.2758 11.8385 14.3124 11.7335 14.3751C11.6286 14.4375 11.5395 14.5245 11.4736 14.6292C11.4078 14.7338 11.367 14.8531 11.3548 14.9771L11.2323 16.1178C11.2147 16.2802 11.1487 16.433 11.0433 16.5554C10.9379 16.6777 10.7983 16.7635 10.6436 16.8012C9.56206 17.0663 8.43465 17.0663 7.35308 16.8012C7.19933 16.7633 7.06064 16.6777 6.9558 16.556C6.85096 16.4343 6.78504 16.2825 6.76697 16.121L6.64454 14.9824C6.62351 14.7884 6.53354 14.6091 6.39186 14.479C6.28119 14.3787 6.14515 14.3126 5.99948 14.2884C5.85381 14.2643 5.70445 14.283 5.5687 14.3424L4.55017 14.8025C4.40455 14.8676 4.24293 14.8849 4.08739 14.852C3.93186 14.8191 3.78999 14.7377 3.68117 14.6188C2.92814 13.7838 2.36573 12.7866 2.03485 11.7C1.98717 11.5426 1.98844 11.3737 2.0385 11.2171C2.08855 11.0604 2.18489 10.9237 2.3141 10.826L3.2128 10.1431C3.311 10.0691 3.39086 9.97237 3.4459 9.86071C3.50095 9.74906 3.52963 9.62564 3.52963 9.50047C3.52963 9.37529 3.50095 9.25188 3.4459 9.14023C3.39086 9.02857 3.311 8.93182 3.2128 8.8578L2.3141 8.17604C2.18582 8.07863 2.09008 7.94273 2.04007 7.78706C1.99006 7.63139 1.98824 7.46361 2.03485 7.30683C2.36512 6.22083 2.92743 5.22449 3.68064 4.39072C3.75358 4.30986 3.84215 4.24559 3.94114 4.20274C4.03756 4.16076 4.1412 4.13913 4.24592 4.13913C4.35063 4.13913 4.45427 4.16076 4.55069 4.20274L5.56505 4.66225C5.67665 4.71152 5.79791 4.73325 5.91914 4.72569C6.04037 4.71813 6.1582 4.68149 6.26318 4.61871C6.36816 4.55593 6.45738 4.46875 6.52369 4.36415C6.59 4.25955 6.63157 4.14045 6.64506 4.01637L6.76801 2.87992C6.78574 2.71576 6.85292 2.5614 6.96015 2.4384C7.06738 2.31541 7.2093 2.22991 7.3661 2.19387C7.90457 2.0719 8.45378 2.00693 9.00513 2C9.5532 2.00643 10.0992 2.07123 10.6343 2.19387C10.7912 2.2301 10.9332 2.31588 11.0403 2.43918C11.1475 2.56249 11.2144 2.71716 11.2318 2.88153L11.3548 4.01691C11.3678 4.1408 11.409 4.25979 11.4751 4.36428C11.5411 4.46877 11.6302 4.55581 11.735 4.61838C11.8398 4.68094 11.9575 4.71727 12.0785 4.72443C12.1996 4.73158 12.3205 4.70937 12.4317 4.65957L13.4455 4.2006C13.5917 4.13497 13.754 4.11755 13.9102 4.15074C14.0664 4.18392 14.2088 4.26609 14.3176 4.3859C15.0708 5.21845 15.6329 6.21401 15.9624 7.29933C16.0098 7.45668 16.0083 7.6253 15.9581 7.78175C15.908 7.9382 15.8117 8.0747 15.6826 8.17229L14.7865 8.85405C14.6879 8.9274 14.6076 9.0237 14.5522 9.13507C14.4967 9.24644 14.4677 9.36973 14.4675 9.49483C14.4673 9.61994 14.4959 9.74332 14.551 9.85489C14.6061 9.96645 14.6861 10.063 14.7844 10.1367L15.6852 10.8201C15.8147 10.9178 15.9113 11.0547 15.9615 11.2116C16.0116 11.3685 16.0128 11.5375 15.965 11.6952C15.6342 12.7803 15.0726 13.7761 14.3208 14.6102C14.2121 14.7298 14.07 14.8118 13.9141 14.8451C13.7583 14.8784 13.5962 14.8613 13.4502 14.7961L12.4317 14.3365ZM12.0134 13.27C11.733 13.288 11.4619 13.3728 11.2218 13.5159C10.9793 13.6602 10.7762 13.86 10.6272 14.0966C10.479 14.3322 10.3881 14.5984 10.3601 14.8737L10.2537 15.865C9.42674 16.0448 8.5723 16.045 7.74526 15.8655L7.63881 14.8755L7.63872 14.8747C7.59199 14.4434 7.39153 14.0393 7.06818 13.7424L7.0682 13.7424L7.06351 13.7381C6.81235 13.5104 6.50053 13.3579 6.16315 13.3019C5.82562 13.2459 5.48011 13.2896 5.16758 13.4264L5.16755 13.4263L5.15707 13.4311L4.3064 13.8153C3.73982 13.1518 3.30601 12.3774 3.0318 11.5366L3.8147 10.9417L3.81678 10.9401C4.04045 10.771 4.21992 10.5522 4.34283 10.3029C4.46607 10.0529 4.52963 9.77811 4.52963 9.50047C4.52963 9.22283 4.46607 8.94803 4.34283 8.69804C4.21981 8.44852 4.04015 8.22953 3.81621 8.06037L3.8147 8.05923L3.03305 7.46626C3.30727 6.62626 3.74141 5.85285 4.30851 5.19086L5.15242 5.57315L5.1524 5.57319L5.16113 5.57704C5.41855 5.69071 5.69963 5.74132 5.98139 5.72375C6.26313 5.70618 6.53544 5.62107 6.77643 5.47694C7.01728 5.33291 7.21933 5.1345 7.36826 4.8996C7.51711 4.66482 7.60932 4.39932 7.6392 4.12444L7.63926 4.12393L7.74624 3.13507C8.16123 3.05133 8.58268 3.00615 9.00554 3.00008C9.42481 3.00576 9.84248 3.05068 10.2534 3.13449L10.3603 4.12153L10.3604 4.12324C10.3896 4.3981 10.4813 4.66371 10.6298 4.89863C10.7787 5.13414 10.9811 5.33299 11.2225 5.47709C11.4641 5.62126 11.7372 5.70599 12.0195 5.72268C12.3019 5.73938 12.5833 5.68742 12.8406 5.57214L12.8406 5.57215L12.8441 5.57057L13.6909 5.18719C14.258 5.84856 14.6918 6.62174 14.9652 7.4616L14.1845 8.05559C13.9606 8.22342 13.7806 8.44109 13.657 8.68942C13.5324 8.93955 13.468 9.2149 13.4675 9.49321C13.4671 9.77153 13.5306 10.0471 13.6543 10.2976C13.7776 10.5472 13.9576 10.7661 14.182 10.9349L14.9681 11.5313C14.6938 12.3717 14.2601 13.1457 13.6937 13.8088L12.8477 13.4272L12.8448 13.4259C12.5897 13.3097 12.3104 13.2557 12.0294 13.2691L12.0214 13.2695L12.0134 13.27ZM16.4963 9.50004C16.2201 9.49675 15.9936 9.71792 15.9903 9.99405C15.9871 10.2702 16.2082 10.4967 16.4844 10.5C16.8798 10.5047 17.2736 10.5521 17.6596 10.6419C17.6772 10.6461 17.6966 10.6567 17.7135 10.6764C17.7306 10.6965 17.7435 10.7244 17.7469 10.757L17.747 10.7582L17.8437 11.665L17.8438 11.6659C17.8619 11.8393 17.9189 12.0071 18.0113 12.1556C18.104 12.3046 18.2303 12.4307 18.3814 12.5223C18.5326 12.614 18.7039 12.668 18.8812 12.6786C19.0586 12.6893 19.2352 12.6561 19.3964 12.5827L19.3982 12.5819L20.1954 12.2154L20.1958 12.2152C20.2134 12.2073 20.2314 12.2057 20.2485 12.2093C20.2657 12.2131 20.2849 12.223 20.3019 12.2417C20.8454 12.852 21.2522 13.5832 21.4911 14.3821C21.5 14.4123 21.4996 14.4451 21.4902 14.4749C21.4808 14.5048 21.4638 14.5272 21.4455 14.5412L21.4443 14.5422L20.7402 15.0862C20.6 15.1928 20.4876 15.3309 20.4106 15.488C20.3332 15.646 20.2932 15.8196 20.2929 15.9951C20.2926 16.1705 20.3321 16.3443 20.409 16.5025C20.4857 16.6603 20.598 16.7991 20.7384 16.9062L20.7397 16.9073L21.4469 17.4521L21.4479 17.4529C21.4663 17.467 21.4833 17.4894 21.4927 17.5194C21.5022 17.5495 21.5024 17.5826 21.4934 17.6129L21.9724 17.7561L21.4935 17.6124C21.2537 18.4116 20.847 19.1433 20.3043 19.7552C20.2874 19.7738 20.2683 19.7837 20.2511 19.7874C20.2341 19.7911 20.2161 19.7895 20.1985 19.7817L20.1981 19.7815L19.4 19.4158L19.3987 19.4152C19.2385 19.341 19.0628 19.3064 18.8859 19.315L18.8859 19.3149L18.8778 19.3155C18.7014 19.3269 18.5312 19.3811 18.3806 19.4723C18.2289 19.5639 18.1023 19.6905 18.0096 19.84C17.9174 19.989 17.8609 20.1572 17.8437 20.3308L17.7475 21.2411L17.7475 21.2412C17.744 21.2734 17.7313 21.3009 17.7144 21.3209C17.6977 21.3405 17.6784 21.3512 17.661 21.3555L17.6601 21.3557C16.8875 21.5481 16.0824 21.5481 15.3098 21.3557C15.2926 21.3513 15.2738 21.3406 15.2574 21.3213C15.2407 21.3016 15.2281 21.2744 15.2244 21.2428L15.2244 21.2421L15.1282 20.3333L15.1281 20.3329C15.0991 20.0611 14.9747 19.8057 14.7729 19.6175L14.7706 19.6154C14.6135 19.4708 14.418 19.3734 14.2059 19.3377C13.9937 19.3019 13.7765 19.3298 13.5803 19.4171L13.5803 19.4171L13.575 19.4195L12.7746 19.7867L12.774 19.7869C12.7565 19.7948 12.7386 19.7964 12.7217 19.7927C12.7045 19.789 12.6855 19.7793 12.6686 19.7608C12.1256 19.1485 11.7187 18.4162 11.4789 17.6164C11.3996 17.3519 11.1209 17.2018 10.8564 17.2811C10.5919 17.3604 10.4418 17.6391 10.5211 17.9036C10.8022 18.8414 11.2806 19.7037 11.9229 20.427L11.9254 20.4298C12.0798 20.6012 12.2841 20.7216 12.5118 20.7704C12.7397 20.8194 12.9762 20.7934 13.1879 20.6973L13.1897 20.6964L13.9883 20.3301C14.0055 20.3228 14.023 20.321 14.0398 20.3238C14.0567 20.3267 14.0751 20.3347 14.092 20.3499C14.1129 20.3699 14.1297 20.4009 14.1337 20.4388L14.1338 20.439L14.2302 21.3495L14.2304 21.3516C14.2553 21.578 14.3465 21.7935 14.4949 21.9683C14.6434 22.1434 14.8427 22.2696 15.0675 22.326L15.0683 22.3261C15.9993 22.5579 16.9702 22.558 17.9013 22.3262C18.1274 22.2703 18.3278 22.1436 18.477 21.9677C18.6261 21.7919 18.7175 21.5751 18.7418 21.3474L18.7419 21.3468L18.8383 20.4342H18.8383L18.8387 20.4302C18.841 20.4062 18.8487 20.3845 18.8597 20.3667C18.8707 20.3489 18.8843 20.3363 18.8977 20.3282L18.8987 20.3276C18.912 20.3195 18.9256 20.3151 18.9387 20.3137C18.9517 20.3137 18.9652 20.3165 18.9786 20.3227L18.981 20.3238L19.7833 20.6914L19.7851 20.6922C19.9974 20.7885 20.2346 20.8143 20.463 20.7647C20.6911 20.7153 20.8956 20.594 21.0499 20.4216L21.0513 20.42C21.6925 19.6975 22.1702 18.8364 22.4513 17.8999L22.4515 17.8994C22.5178 17.6775 22.5161 17.44 22.4466 17.2191C22.3771 16.9983 22.2421 16.8019 22.0567 16.6596L22.0562 16.6592L21.3477 16.1133L21.3453 16.1115C21.3314 16.1009 21.3182 16.0855 21.3083 16.0653C21.2985 16.045 21.2929 16.0214 21.2929 15.9967C21.2929 15.9719 21.2986 15.9484 21.3086 15.9281C21.3184 15.908 21.3317 15.8927 21.3456 15.8822L21.3456 15.8822L21.3499 15.8789L22.0545 15.3344L22.0554 15.3337C22.24 15.1917 22.3744 14.9959 22.4439 14.7759C22.5134 14.5556 22.5154 14.3188 22.4497 14.0973L22.4494 14.0963C22.1693 13.1591 21.6909 12.2977 21.0482 11.5761L21.0475 11.5753C20.893 11.4026 20.6881 11.2812 20.4594 11.2318C20.2305 11.1824 19.9929 11.2086 19.7804 11.3056L19.779 11.3062L18.9822 11.6726L18.9817 11.6728C18.968 11.6789 18.9543 11.6812 18.9411 11.6804C18.9278 11.6796 18.9137 11.6756 18.8997 11.6671C18.8857 11.6586 18.8717 11.6455 18.8603 11.6272C18.8489 11.6089 18.841 11.5866 18.8384 11.562L18.8383 11.5605L18.7415 10.6534L18.7415 10.6526C18.7173 10.4225 18.6248 10.2033 18.4733 10.0263C18.3214 9.84879 18.1173 9.72215 17.8877 9.6683L17.8869 9.66812C17.4301 9.56179 16.9641 9.50561 16.4963 9.50004ZM12.6686 19.7608C12.6685 19.7606 12.6683 19.7604 12.6682 19.7603L12.2968 20.095L12.6707 19.7631C12.67 19.7623 12.6693 19.7615 12.6686 19.7608ZM15.3098 21.3557C15.3101 21.3558 15.3103 21.3559 15.3105 21.3559L15.189 21.8409L15.3098 21.3557ZM20.3019 12.2417C20.302 12.2418 20.3021 12.242 20.3022 12.2421L20.6748 11.9087L20.3015 12.2413C20.3016 12.2414 20.3017 12.2416 20.3019 12.2417Z" fill="white"/>
</svg>
